<svg data-name="Layer 1" xmlns="http://www.w3.org/2000/svg" viewBox="0 0 300 300"><g transform="matrix(0.8108108108108109,0,0,0.8108108108108109,0,0)"><rect x="22.87" y="33.25" width="322.11" height="275.21" rx="37.9" fill="#242423"></rect><path d="M305.66 85a7.83 7.83 0 0 0 1 0c2.11 0 2.16-.91 2.18-1.4V81c0-1.81 0-3.23-.15-4.31a2.26 2.26 0 0 0 1.3.39 2.7 2.7 0 0 0 2.18-.93c.27-.34.24-.51.1-1a24 24 0 0 0-4.21-6.15 2.06 2.06 0 0 0-1.39-.76 4.35 4.35 0 0 0-.49 0 1.94 1.94 0 0 0-2.18 1.87v5.76a66.93 66.93 0 0 0 .32 7c.09 1.21.61 2.13 1.34 2.13zm2.08 5.54c-4.77 0-5.75 4.54-5.75 8.24s1.15 8.85 5.95 8.85c5.34 0 5.64-6.74 5.64-9.49 0-4.04-1.82-7.6-5.84-7.6zm0 12.06c-1.2 0-1.5-1.25-1.5-4.12 0-1.86.37-3.38 1.3-3.38s1.5 1.42 1.5 3.65c.03 2.53-.41 3.85-1.27 3.85zm4.49 18.52c.27-.34.24-.51.1-1a23.87 23.87 0 0 0-4.27-6.28 2.06 2.06 0 0 0-1.39-.76 4.35 4.35 0 0 0-.49 0A1.94 1.94 0 0 0 304 115v5.76a66.93 66.93 0 0 0 .32 7c.12 1.25.64 2.13 1.37 2.21a7.83 7.83 0 0 0 1 .05c2.11 0 2.16-.91 2.18-1.4v-2.65c0-1.81 0-3.23-.15-4.31a2.26 2.26 0 0 0 1.3.39 2.7 2.7 0 0 0 2.21-.93zm-4.49 14.35c-4.77 0-5.75 4.54-5.75 8.24s1.15 8.85 5.95 8.85c5.34 0 5.64-6.74 5.64-9.49 0-4.07-1.82-7.6-5.84-7.6zm0 12.06c-1.2 0-1.5-1.25-1.5-4.11 0-1.87.37-3.39 1.3-3.39s1.5 1.42 1.5 3.65c.03 2.53-.41 3.85-1.27 3.85zm0 10.41c-4.77 0-5.75 4.53-5.75 8.23s1.15 8.85 5.95 8.85c5.34 0 5.64-6.74 5.64-9.48 0-4.05-1.82-7.6-5.84-7.6zm0 12.06c-1.2 0-1.5-1.25-1.5-4.12 0-1.86.37-3.38 1.3-3.38s1.5 1.42 1.5 3.65c.03 2.52-.41 3.85-1.27 3.85zm0 10.41c-4.77 0-5.75 4.53-5.75 8.23s1.15 8.85 5.95 8.85c5.34 0 5.64-6.74 5.64-9.49 0-4-1.82-7.59-5.84-7.59zm0 12.05c-1.2 0-1.5-1.25-1.5-4.11 0-1.87.37-3.39 1.3-3.39s1.5 1.42 1.5 3.66c.03 2.52-.41 3.84-1.27 3.84zm.32 11.29a2.06 2.06 0 0 0-1.39-.76 4.35 4.35 0 0 0-.49 0 1.94 1.94 0 0 0-2.18 1.91v5.76a66.93 66.93 0 0 0 .32 7c.12 1.25.64 2.14 1.37 2.21a7.83 7.83 0 0 0 1 0c2.11 0 2.16-.91 2.18-1.4v-2.6c0-1.81 0-3.23-.15-4.31a2.19 2.19 0 0 0 1.3.39 2.7 2.7 0 0 0 2.18-.93c.27-.34.24-.51.1-.95a23.87 23.87 0 0 0-4.24-6.32zm27.42 10.42c.27-.35.24-.52.1-1a24 24 0 0 0-4.27-6.27 2 2 0 0 0-1.39-.76 2.91 2.91 0 0 0-.49 0c-1.43 0-2 .61-2.21 1.94v5.76a67.16 67.16 0 0 0 .32 7c.12 1.25.64 2.13 1.37 2.2a7.83 7.83 0 0 0 1 .05c2.11 0 2.16-.91 2.18-1.4v-2.6c0-1.82 0-3.24-.15-4.31a2.26 2.26 0 0 0 1.3.39 2.7 2.7 0 0 0 2.24-1zM331 228.52c-4.77 0-5.75 4.53-5.75 8.23s1.15 8.85 5.95 8.85c5.34 0 5.64-6.74 5.64-9.48-.01-4.05-1.84-7.6-5.84-7.6zm0 12.06c-1.2 0-1.5-1.25-1.5-4.12 0-1.86.37-3.38 1.3-3.38s1.5 1.42 1.5 3.65c.02 2.52-.42 3.85-1.3 3.85zm4.48 18.52c.27-.35.24-.52.1-1a24 24 0 0 0-4.27-6.27 2 2 0 0 0-1.39-.76 2.91 2.91 0 0 0-.49 0c-1.43 0-2 .62-2.21 1.94v5.76a67.16 67.16 0 0 0 .32 7c.12 1.25.64 2.13 1.37 2.2a7.83 7.83 0 0 0 1 .05c2.11 0 2.16-.9 2.18-1.4v-2.6c0-1.82 0-3.24-.15-4.31a2.26 2.26 0 0 0 1.3.39 2.7 2.7 0 0 0 2.24-1zM331 273.45c-4.77 0-5.75 4.53-5.75 8.23s1.15 8.85 5.95 8.85c5.34 0 5.64-6.74 5.64-9.48-.01-4.05-1.84-7.6-5.84-7.6zm0 12.06c-1.2 0-1.5-1.25-1.5-4.12 0-1.86.37-3.38 1.3-3.38s1.5 1.42 1.5 3.65c.02 2.52-.42 3.85-1.3 3.85zm-5.76 18.32a38.06 38.06 0 0 0 9-6.87 5.22 5.22 0 0 0-3.27-1c-4.62-.04-5.67 4.23-5.73 7.87zM278.2 65.13c5.34 0 5.63-6.74 5.63-9.49 0-4-1.81-7.59-5.83-7.59-4.78 0-5.76 4.53-5.76 8.23s1.15 8.85 5.96 8.85zm-.37-12.53c1 0 1.5 1.42 1.5 3.66 0 2.52-.45 3.84-1.3 3.84-1.2 0-1.5-1.25-1.5-4.11 0-1.87.37-3.39 1.3-3.39zm.37 34.99c5.34 0 5.63-6.74 5.63-9.48 0-4-1.81-7.6-5.83-7.6-4.78 0-5.76 4.53-5.76 8.23s1.15 8.85 5.96 8.85zm-.37-12.52c1 0 1.5 1.42 1.5 3.65 0 2.52-.45 3.85-1.3 3.85-1.2 0-1.5-1.25-1.5-4.12 0-1.86.37-3.38 1.3-3.38zm.37 34.99c5.34 0 5.63-6.74 5.63-9.49 0-4-1.81-7.59-5.83-7.59-4.78 0-5.76 4.53-5.76 8.23s1.15 8.85 5.96 8.85zm-.37-12.53c1 0 1.5 1.43 1.5 3.66 0 2.52-.45 3.84-1.3 3.84-1.2 0-1.5-1.25-1.5-4.11 0-1.87.37-3.39 1.3-3.39zm.49 18.79a2.1 2.1 0 0 0-1.4-.76 4.18 4.18 0 0 0-.49 0c-1.42 0-2 .61-2.2 1.93v5.76a66.93 66.93 0 0 0 .32 7c.12 1.25.63 2.14 1.37 2.21a7.75 7.75 0 0 0 1 0c2.1 0 2.15-.91 2.18-1.4v-2.66c0-1.81 0-3.23-.14-4.31a2.16 2.16 0 0 0 1.29.39 2.67 2.67 0 0 0 2.19-.93c.27-.34.24-.51.09-1a24.17 24.17 0 0 0-4.21-6.23zm-36.41-78.06c3.23 0 4.61-2.46 5.2-5h-10.69c.68 2.64 2.26 5 5.49 5zm.09 6.27a2 2 0 0 0-1.39-.76 2.86 2.86 0 0 0-.49 0c-1.42 0-2 .61-2.21 1.94v5.76a67.16 67.16 0 0 0 .32 7c.12 1.25.64 2.13 1.37 2.2a7.83 7.83 0 0 0 1 0c2.11 0 2.16-.91 2.18-1.4v-2.59c0-1.82-.05-3.24-.15-4.32a2.2 2.2 0 0 0 1.3.4 2.66 2.66 0 0 0 2.18-.94c.27-.34.24-.51.1-1a24 24 0 0 0-4.21-6.29zm-16.18 39.12a7.83 7.83 0 0 0 1 0c2.11 0 2.16-.9 2.18-1.39v-2.6c0-1.81-.05-3.23-.15-4.31a2.26 2.26 0 0 0 1.3.39 2.7 2.7 0 0 0 2.18-.93c.27-.34.24-.52.1-1a24 24 0 0 0-4.27-6.27 2 2 0 0 0-1.39-.76 4.35 4.35 0 0 0-.49 0 1.94 1.94 0 0 0-2.21 1.93v5.76a67 67 0 0 0 .32 7c.18 1.23.7 2.11 1.43 2.18zm2.08 5.51c-4.77 0-5.75 4.54-5.75 8.24s1.15 8.84 5.95 8.84c5.34 0 5.64-6.74 5.64-9.48 0-4.04-1.82-7.6-5.84-7.6zm0 12.06c-1.2 0-1.5-1.25-1.5-4.12 0-1.86.37-3.38 1.3-3.38s1.5 1.42 1.5 3.65c.03 2.53-.41 3.85-1.27 3.85zm0 10.41c-4.77 0-5.75 4.53-5.75 8.23s1.15 8.85 5.95 8.85c5.34 0 5.64-6.74 5.64-9.49 0-4.04-1.82-7.59-5.84-7.59zm0 12.05c-1.2 0-1.5-1.25-1.5-4.11 0-1.86.37-3.38 1.3-3.38s1.5 1.42 1.5 3.65c.03 2.52-.41 3.84-1.27 3.84zm0 10.41c-4.77 0-5.75 4.54-5.75 8.24s1.15 8.84 5.95 8.84c5.34 0 5.64-6.74 5.64-9.48 0-4.04-1.82-7.6-5.84-7.6zm0 12.06c-1.2 0-1.5-1.25-1.5-4.12 0-1.86.37-3.38 1.3-3.38s1.5 1.42 1.5 3.65c.03 2.53-.41 3.85-1.27 3.85zm.32 11.29a2.06 2.06 0 0 0-1.39-.76 4.35 4.35 0 0 0-.49 0 1.94 1.94 0 0 0-2.21 1.93v5.76a66.93 66.93 0 0 0 .32 7c.12 1.25.64 2.13 1.37 2.21a7.83 7.83 0 0 0 1 0c2.11 0 2.16-.91 2.18-1.4v-2.6c0-1.81-.05-3.23-.15-4.31a2.26 2.26 0 0 0 1.3.39 2.7 2.7 0 0 0 2.18-.93c.27-.34.24-.51.1-1a24 24 0 0 0-4.21-6.29zm0 22.47a2 2 0 0 0-1.39-.76 2.91 2.91 0 0 0-.49 0c-1.43 0-2 .61-2.21 1.94v5.76a67.16 67.16 0 0 0 .32 7c.12 1.25.64 2.13 1.37 2.2a7.83 7.83 0 0 0 1 .05c2.11 0 2.16-.91 2.18-1.4v-2.59c0-1.82-.05-3.24-.15-4.32a2.2 2.2 0 0 0 1.3.4 2.67 2.67 0 0 0 2.18-.94c.27-.34.24-.51.1-.95a24 24 0 0 0-4.21-6.39zm0 22.46a2.06 2.06 0 0 0-1.39-.76 4.35 4.35 0 0 0-.49 0 1.94 1.94 0 0 0-2.21 1.93v5.76a66.93 66.93 0 0 0 .32 7c.12 1.25.64 2.13 1.37 2.21a7.83 7.83 0 0 0 1 .05c2.11 0 2.16-.91 2.18-1.4v-2.6c0-1.81-.05-3.23-.15-4.31a2.26 2.26 0 0 0 1.3.39 2.7 2.7 0 0 0 2.18-.93c.27-.34.24-.51.1-1a24 24 0 0 0-4.21-6.34zM158.65 64.56a7.75 7.75 0 0 0 1 0c2.1 0 2.15-.91 2.18-1.4v-2.65c0-1.81 0-3.23-.14-4.31a2.23 2.23 0 0 0 1.29.39 2.7 2.7 0 0 0 2.19-.93c.27-.34.24-.51.09-1a24 24 0 0 0-4.26-6.27 2.1 2.1 0 0 0-1.4-.76 4.18 4.18 0 0 0-.49 0c-1.42 0-2 .61-2.2 1.93v5.76a66.93 66.93 0 0 0 .32 7c.17 1.28.68 2.16 1.42 2.24zm2.08 5.5c-4.73 0-5.73 4.54-5.73 8.24s1.15 8.84 6 8.84c5.34 0 5.63-6.74 5.63-9.48-.07-4.04-1.88-7.6-5.9-7.6zm0 12.06c-1.2 0-1.5-1.25-1.5-4.12 0-1.86.37-3.38 1.3-3.38s1.49 1.42 1.49 3.65c.03 2.53-.41 3.85-1.26 3.85zm0 10.41c-4.78 0-5.76 4.53-5.76 8.23s1.15 8.85 6 8.85c5.34 0 5.63-6.74 5.63-9.48-.04-4.05-1.85-7.6-5.87-7.6zm0 12.06c-1.2 0-1.5-1.25-1.5-4.12 0-1.86.37-3.38 1.3-3.38s1.49 1.42 1.49 3.65c.03 2.52-.41 3.85-1.26 3.85zm0 10.41c-4.78 0-5.76 4.54-5.76 8.24s1.15 8.84 6 8.84c5.34 0 5.63-6.73 5.63-9.48-.04-4.05-1.85-7.6-5.87-7.6zm0 12.06c-1.2 0-1.5-1.25-1.5-4.12 0-1.86.37-3.38 1.3-3.38s1.49 1.42 1.49 3.65c.03 2.52-.41 3.84-1.26 3.84zm.32 11.28a2.1 2.1 0 0 0-1.4-.76 4.18 4.18 0 0 0-.49 0c-1.42 0-2 .61-2.2 1.93v5.76a66.93 66.93 0 0 0 .32 7c.12 1.25.63 2.13 1.37 2.21a7.75 7.75 0 0 0 1 .05c2.1 0 2.15-.91 2.18-1.4v-2.6c0-1.81 0-3.23-.14-4.31a2.23 2.23 0 0 0 1.29.39 2.7 2.7 0 0 0 2.19-.93c.27-.34.24-.51.09-.95a23.84 23.84 0 0 0-4.21-6.39zm0 22.47a2.06 2.06 0 0 0-1.4-.76 2.8 2.8 0 0 0-.49 0c-1.42 0-2 .61-2.2 1.94v5.76a67.16 67.16 0 0 0 .32 7c.12 1.25.63 2.13 1.37 2.2a7.75 7.75 0 0 0 1 .05c2.1 0 2.15-.91 2.18-1.4V173c0-1.82 0-3.24-.14-4.31a2.23 2.23 0 0 0 1.31.31 2.7 2.7 0 0 0 2.19-.93c.27-.35.24-.52.09-1a24 24 0 0 0-4.23-6.26zm0 22.46a2.1 2.1 0 0 0-1.4-.76 4.18 4.18 0 0 0-.49 0c-1.42 0-2 .61-2.2 1.93v5.76a66.93 66.93 0 0 0 .32 7c.12 1.25.63 2.13 1.37 2.21a7.75 7.75 0 0 0 1 .05c2.1 0 2.15-.91 2.18-1.4v-2.66c0-1.81 0-3.23-.14-4.31a2.16 2.16 0 0 0 1.29.39 2.7 2.7 0 0 0 2.19-.93c.27-.34.24-.51.09-.95a23.84 23.84 0 0 0-4.21-6.33zm0 22.47a2.06 2.06 0 0 0-1.4-.76 2.8 2.8 0 0 0-.49 0c-1.42 0-2 .62-2.2 1.94v5.76a67 67 0 0 0 .32 7c.12 1.25.63 2.13 1.37 2.2a7.75 7.75 0 0 0 1 .05c2.1 0 2.15-.9 2.18-1.39v-2.65c0-1.81 0-3.24-.14-4.31a2.23 2.23 0 0 0 1.29.39 2.7 2.7 0 0 0 2.19-.93c.27-.35.24-.52.09-1a24 24 0 0 0-4.21-6.3zM119.77 48a2.06 2.06 0 0 0-1.39-.76 4.27 4.27 0 0 0-.49 0 1.94 1.94 0 0 0-2.21 1.93v5.76a66.93 66.93 0 0 0 .32 7c.12 1.25.64 2.13 1.37 2.21a7.83 7.83 0 0 0 1 0c2.11 0 2.16-.91 2.18-1.4v-2.6c0-1.81 0-3.23-.15-4.31a2.26 2.26 0 0 0 1.3.39 2.68 2.68 0 0 0 2.18-.93c.27-.34.24-.51.1-1a24 24 0 0 0-4.21-6.29zm0 22.43a2 2 0 0 0-1.39-.76 2.86 2.86 0 0 0-.49 0c-1.42 0-2 .61-2.21 1.94v5.76a67.16 67.16 0 0 0 .32 7c.12 1.25.64 2.13 1.37 2.2a7.83 7.83 0 0 0 1 0c2.11 0 2.16-.91 2.18-1.4v-2.66c0-1.82 0-3.24-.15-4.32a2.2 2.2 0 0 0 1.3.4 2.66 2.66 0 0 0 2.18-.94c.27-.34.24-.51.1-1a24 24 0 0 0-4.21-6.22zm0 22.46a2.06 2.06 0 0 0-1.39-.76 4.27 4.27 0 0 0-.49 0 1.94 1.94 0 0 0-2.21 1.87v5.8a66.93 66.93 0 0 0 .32 7c.12 1.25.64 2.13 1.37 2.21a7.83 7.83 0 0 0 1 0c2.11 0 2.16-.91 2.18-1.4v-2.65c0-1.81 0-3.23-.15-4.31a2.26 2.26 0 0 0 1.3.39 2.68 2.68 0 0 0 2.18-.93c.27-.34.24-.51.1-1a23.87 23.87 0 0 0-4.21-6.22zm0 22.47a2 2 0 0 0-1.39-.76 2.86 2.86 0 0 0-.49 0c-1.42 0-2 .61-2.21 1.94v5.76a67.16 67.16 0 0 0 .32 7c.12 1.25.64 2.13 1.37 2.2a7.83 7.83 0 0 0 1 0c2.11 0 2.16-.91 2.18-1.4v-2.6c0-1.82 0-3.24-.15-4.31a2.26 2.26 0 0 0 1.3.39 2.68 2.68 0 0 0 2.18-.93c.27-.35.24-.52.1-1a24 24 0 0 0-4.21-6.29zM84.08 38.14a7.68 7.68 0 0 0 1 0c2.11 0 2.16-.91 2.19-1.4v-3.49h-4.78c.05.84.12 1.72.21 2.68.13 1.25.64 2.13 1.38 2.21zm2.28 22.58C91.7 60.72 92 54 92 51.24c0-4-1.81-7.6-5.83-7.6-4.78 0-5.76 4.54-5.76 8.24s1.14 8.84 5.95 8.84zM86 48.2c1 0 1.49 1.42 1.49 3.65 0 2.53-.44 3.85-1.3 3.85-1.2 0-1.49-1.25-1.49-4.12-.01-1.86.36-3.38 1.3-3.38zm4.64 26.02c.27-.34.25-.51.1-1A24.2 24.2 0 0 0 86.48 67a2.1 2.1 0 0 0-1.4-.76 4.18 4.18 0 0 0-.49 0c-1.42 0-2 .61-2.21 1.93v5.73a66.93 66.93 0 0 0 .32 7c.13 1.25.64 2.13 1.38 2.21a7.68 7.68 0 0 0 1 .05c2.11 0 2.16-.91 2.19-1.4v-2.6c0-1.81 0-3.23-.15-4.31a2.28 2.28 0 0 0 1.3.39 2.67 2.67 0 0 0 2.22-1.02zm-4.28 31.43c5.34 0 5.63-6.73 5.63-9.48 0-4-1.81-7.6-5.83-7.6-4.78 0-5.76 4.54-5.76 8.24s1.15 8.84 5.96 8.84zM86 93.13c1 0 1.49 1.42 1.49 3.65 0 2.53-.44 3.85-1.3 3.85-1.2 0-1.49-1.25-1.49-4.12-.01-1.86.36-3.38 1.3-3.38zm4.64 26.02c.27-.34.25-.51.1-1a24.08 24.08 0 0 0-4.26-6.28 2.1 2.1 0 0 0-1.4-.76 4.18 4.18 0 0 0-.49 0c-1.42 0-2 .61-2.21 1.93v5.76a66.93 66.93 0 0 0 .32 7c.13 1.25.64 2.13 1.38 2.21a7.68 7.68 0 0 0 1 .05c2.11 0 2.16-.91 2.19-1.4v-2.65c0-1.81 0-3.23-.15-4.31a2.28 2.28 0 0 0 1.3.39 2.67 2.67 0 0 0 2.22-.94zm-3.35 29.96v-2.6c0-1.82 0-3.24-.15-4.31a2.28 2.28 0 0 0 1.3.39 2.67 2.67 0 0 0 2.18-.93c.27-.35.25-.52.1-1a24.2 24.2 0 0 0-4.26-6.27 2.06 2.06 0 0 0-1.4-.76 2.8 2.8 0 0 0-.49 0c-1.42 0-2 .62-2.21 1.94v5.76a67.16 67.16 0 0 0 .32 7c.13 1.25.64 2.13 1.38 2.2a7.68 7.68 0 0 0 1 0c2.15-.02 2.2-.93 2.23-1.42zm-29.57 23.25a7.83 7.83 0 0 0 1 0c2.11 0 2.16-.91 2.18-1.4v-2.6c0-1.82-.05-3.24-.15-4.32a2.2 2.2 0 0 0 1.3.4 2.7 2.7 0 0 0 2.18-.93c.27-.35.24-.52.1-1a24 24 0 0 0-4.27-6.27 2 2 0 0 0-1.39-.76 2.91 2.91 0 0 0-.49 0c-1.43 0-2 .61-2.21 1.94v5.76a67.16 67.16 0 0 0 .32 7c.18 1.23.71 2.11 1.43 2.18zm0 22.47a7.83 7.83 0 0 0 1 0c2.11 0 2.16-.91 2.18-1.4v-2.6c0-1.81-.05-3.23-.15-4.31a2.26 2.26 0 0 0 1.3.39 2.7 2.7 0 0 0 2.18-.93c.27-.34.24-.51.1-1a24 24 0 0 0-4.27-6.27 2.06 2.06 0 0 0-1.39-.76 4.35 4.35 0 0 0-.49 0A1.94 1.94 0 0 0 56 179.9v5.76a66.93 66.93 0 0 0 .32 7c.15 1.21.68 2.09 1.4 2.17zm2.08 5.5c-4.77 0-5.75 4.54-5.75 8.24s1.15 8.85 6 8.85c5.34 0 5.64-6.74 5.64-9.49-.05-4.04-1.87-7.6-5.89-7.6zm0 12.06c-1.2 0-1.5-1.25-1.5-4.12 0-1.86.37-3.38 1.3-3.38s1.5 1.42 1.5 3.65c.03 2.53-.41 3.85-1.27 3.85zm0 10.41c-4.77 0-5.75 4.53-5.75 8.23s1.15 8.85 6 8.85c5.34 0 5.64-6.74 5.64-9.48-.05-4.05-1.87-7.6-5.89-7.6zm0 12.06c-1.2 0-1.5-1.25-1.5-4.12 0-1.86.37-3.38 1.3-3.38s1.5 1.42 1.5 3.65c.03 2.52-.41 3.85-1.27 3.85z" fill="#474b4b"></path><path d="M32.23 47.89a4.41 4.41 0 0 0 3.59 1.53 3.67 3.67 0 0 0 2.18-.64c-.16 1.77-.24 4.11-.24 7.09v4.35c0 .81.12 2.3 3.58 2.3a11.82 11.82 0 0 0 1.7-.09c1.2-.12 2-1.57 2.25-3.62a111.36 111.36 0 0 0 .53-11.44V37.9a6.23 6.23 0 0 0-.39-1.41A38 38 0 0 0 32 46.45a1.22 1.22 0 0 0 .23 1.44zm7.37 23.6C33 71.49 30 77.33 30 84c0 4.52.49 15.59 9.27 15.59 7.9 0 9.79-8.58 9.79-14.54s-1.6-13.56-9.46-13.56zm0 19.82c-1.41 0-2.13-2.18-2.13-6.33 0-3.66.84-6 2.45-6S42 81.48 42 84.54c0 4.71-.46 6.77-2.44 6.77zm0 17.1c-6.6 0-9.59 5.85-9.59 12.49 0 4.51.49 15.59 9.27 15.59 7.9 0 9.79-8.58 9.79-14.54s-1.61-13.54-9.47-13.54zm0 19.82c-1.41 0-2.13-2.17-2.13-6.32 0-3.67.84-6 2.45-6S42 118.4 42 121.47c0 4.71-.46 6.76-2.44 6.76zm0 17.11c-6.6 0-9.59 5.84-9.59 12.49 0 4.51.49 15.59 9.27 15.59 7.9 0 9.79-8.58 9.79-14.54s-1.61-13.54-9.47-13.54zm0 19.82c-1.41 0-2.13-2.17-2.13-6.32 0-3.67.84-6 2.45-6s2.08 2.49 2.08 5.55c0 4.72-.46 6.77-2.44 6.77zM38 196.49c-.16 1.77-.24 4.11-.24 7.09v4.35c0 .81.12 2.3 3.58 2.3a13.28 13.28 0 0 0 1.7-.08c1.2-.12 2-1.58 2.25-3.63a111.36 111.36 0 0 0 .53-11.44v-9.47c-.37-2.17-1.29-3.18-3.63-3.18a5.84 5.84 0 0 0-.81 0 3.37 3.37 0 0 0-2.29 1.25 39.55 39.55 0 0 0-7 10.31c-.24.73-.28 1 .16 1.57a4.41 4.41 0 0 0 3.59 1.53 3.67 3.67 0 0 0 2.16-.6zM66.08 51.16c5.53 0 6.86-6 6.86-10.2 0-2.71-.46-5.81-2.2-7.71h-8.85a10 10 0 0 0-2.31 7c0 3.14.34 10.91 6.5 10.91zm.42-14.44c1.08 0 1.5 1.75 1.5 3.9 0 3.31-.34 4.75-1.72 4.75-1 0-1.5-1.53-1.5-4.44 0-2.57.59-4.21 1.72-4.21zm-.2 20.63c-4.63 0-6.72 4.1-6.72 8.76 0 3.16.34 10.93 6.5 10.93 5.53 0 6.86-6 6.86-10.2s-1.13-9.49-6.64-9.49zm0 13.9c-1 0-1.5-1.53-1.5-4.43 0-2.57.59-4.21 1.72-4.21s1.5 1.75 1.5 3.9c-.02 3.3-.36 4.74-1.74 4.74zm0 11.99c-4.63 0-6.72 4.1-6.72 8.76 0 3.16.34 10.93 6.5 10.93 5.53 0 6.86-6 6.86-10.2s-1.13-9.49-6.64-9.49zm0 13.9c-1 0-1.5-1.53-1.5-4.44 0-2.57.59-4.21 1.72-4.21s1.5 1.75 1.5 3.9c-.02 3.31-.36 4.75-1.74 4.75zm1.81 12.1a3.63 3.63 0 0 0-.56 0 2.33 2.33 0 0 0-1.61.87 27.92 27.92 0 0 0-4.94 7.26c-.17.51-.2.71.11 1.1a3.09 3.09 0 0 0 2.52 1.08 2.58 2.58 0 0 0 1.5-.46c-.12 1.25-.17 2.89-.17 5v3.06c0 .56.09 1.61 2.52 1.61a8.53 8.53 0 0 0 1.18-.06c.85-.08 1.44-1.1 1.59-2.54a77.36 77.36 0 0 0 .36-8v-6.64c-.21-1.58-.86-2.28-2.5-2.28zM103.34 55c8.88 0 11-9.65 11-16.36a30.49 30.49 0 0 0-.44-5.35h-8.19a13.36 13.36 0 0 1 .7 4.81c0 5.3-.55 7.61-2.77 7.61-1.58 0-2.4-2.45-2.4-7.12a12.84 12.84 0 0 1 .87-5.3h-8.82a22.69 22.69 0 0 0-.38 4.17c0 5.04.55 17.54 10.43 17.54zm3.26 10.09a5.87 5.87 0 0 0-.91 0 3.82 3.82 0 0 0-2.58 1.4 44.55 44.55 0 0 0-7.89 11.6c-.27.82-.31 1.14.18 1.77a4.94 4.94 0 0 0 4 1.72 4.13 4.13 0 0 0 2.4-.72c-.18 2-.27 4.62-.27 8v4.9c0 .91.14 2.58 4 2.58a14.83 14.83 0 0 0 1.9-.09c1.36-.13 2.31-1.77 2.54-4.08a123.57 123.57 0 0 0 .59-12.87V68.67c-.29-2.44-1.33-3.58-3.96-3.58zM142.18 39c0 .57.08 1.61 2.51 1.61a10.39 10.39 0 0 0 1.19 0c.85-.09 1.44-1.1 1.58-2.54.18-1.81.27-3.37.32-4.84h-5.59V36c0 1.03-.04 1.92-.01 3zm1.3 8c-4.63 0-6.72 4.09-6.72 8.75 0 3.17.33 10.93 6.49 10.93 5.54 0 6.87-6 6.87-10.19S149 47 143.48 47zm0 13.89c-1 0-1.5-1.52-1.5-4.43 0-2.57.6-4.21 1.73-4.21s1.49 1.75 1.49 3.9c-.03 3.27-.37 4.71-1.75 4.71zm0 11.96c-4.63 0-6.72 4.1-6.72 8.76 0 3.16.33 10.93 6.49 10.93 5.54 0 6.87-6 6.87-10.2s-1.12-9.49-6.64-9.49zm0 13.9c-1 0-1.5-1.53-1.5-4.44 0-2.57.6-4.2 1.73-4.2s1.49 1.75 1.49 3.89c-.03 3.31-.37 4.75-1.75 4.75zm0 11.99c-4.63 0-6.72 4.09-6.72 8.75 0 3.17.33 10.93 6.49 10.93 5.54 0 6.87-6 6.87-10.19s-1.12-9.49-6.64-9.49zm0 13.89c-1 0-1.5-1.52-1.5-4.43 0-2.57.6-4.21 1.73-4.21s1.49 1.75 1.49 3.9c-.03 3.3-.37 4.74-1.75 4.74zm1.81 12.11h-.57a2.39 2.39 0 0 0-1.61.88 27.48 27.48 0 0 0-4.91 7.23c-.17.51-.2.71.11 1.1a3.07 3.07 0 0 0 2.51 1.08 2.58 2.58 0 0 0 1.5-.46c-.11 1.25-.17 2.88-.17 5v3.05c0 .57.08 1.61 2.51 1.61a10.39 10.39 0 0 0 1.19-.05c.85-.09 1.44-1.1 1.58-2.54a77.82 77.82 0 0 0 .37-8V127c-.23-1.56-.88-2.26-2.51-2.26zm0 25.88a3.83 3.83 0 0 0-.57 0 2.42 2.42 0 0 0-1.61.87 27.7 27.7 0 0 0-4.91 7.24c-.17.5-.2.7.11 1.1a3.09 3.09 0 0 0 2.51 1.07 2.57 2.57 0 0 0 1.5-.45c-.11 1.24-.17 2.88-.17 5v3.06c0 .56.08 1.61 2.51 1.61a8.67 8.67 0 0 0 1.19-.06c.85-.08 1.44-1.1 1.58-2.54a77.52 77.52 0 0 0 .37-8v-6.64c-.23-1.55-.88-2.26-2.51-2.26zm0 25.89h-.57a2.39 2.39 0 0 0-1.61.88 27.48 27.48 0 0 0-4.91 7.23c-.17.51-.2.71.11 1.1a3.07 3.07 0 0 0 2.51 1.08 2.58 2.58 0 0 0 1.5-.46c-.11 1.25-.17 2.88-.17 5v3c0 .57.08 1.61 2.51 1.61a10.39 10.39 0 0 0 1.19-.05c.85-.09 1.44-1.1 1.58-2.54a77.75 77.75 0 0 0 .37-8v-6.64c-.23-1.51-.88-2.21-2.51-2.21zM41.12 260.5a10.39 10.39 0 0 0 1.19-.05c.85-.09 1.44-1.1 1.58-2.54a77.82 77.82 0 0 0 .37-8v-6.63c-.26-1.53-.91-2.24-2.54-2.24a3.83 3.83 0 0 0-.57 0 2.39 2.39 0 0 0-1.61.88 27.48 27.48 0 0 0-4.91 7.23c-.17.51-.2.71.11 1.1a3.08 3.08 0 0 0 2.51 1.07 2.57 2.57 0 0 0 1.5-.45c-.11 1.25-.17 2.88-.17 5v3.05c.06.54.11 1.58 2.54 1.58zm-1.21 6.29c-4.63 0-6.72 4.09-6.72 8.75 0 3.17.34 10.93 6.49 10.93 5.54 0 6.87-6 6.87-10.19s-1.13-9.49-6.64-9.49zm0 13.89c-1 0-1.5-1.52-1.5-4.43 0-2.57.6-4.21 1.73-4.21s1.49 1.75 1.49 3.9c-.03 3.3-.37 4.74-1.75 4.74zm0 11.99c-3.15 0-5.12 1.89-6.06 4.56a38 38 0 0 0 4.56 3.94c.14-2 .72-3.24 1.7-3.24s1.49 1.75 1.49 3.89v1.43a38.89 38.89 0 0 0 4.66 2.32 18.71 18.71 0 0 0 .31-3.41c-.02-4.26-1.15-9.49-6.66-9.49zM91.36 175a27.48 27.48 0 0 0-4.91 7.23c-.17.5-.2.7.11 1.1a3.1 3.1 0 0 0 2.51 1.07 2.57 2.57 0 0 0 1.5-.45c-.11 1.24-.17 2.88-.17 5V192c0 .57.08 1.61 2.51 1.61a8.67 8.67 0 0 0 1.19-.06c.85-.08 1.44-1.1 1.58-2.54a77.52 77.52 0 0 0 .37-8v-6.64c-.26-1.52-.9-2.23-2.54-2.23a3.83 3.83 0 0 0-.57 0 2.39 2.39 0 0 0-1.58.86zm.37 24.85c-4.63 0-6.72 4.1-6.72 8.76 0 3.16.34 10.93 6.49 10.93 5.54 0 6.87-6 6.87-10.2s-1.13-9.49-6.64-9.49zm0 13.9c-1 0-1.5-1.53-1.5-4.43 0-2.57.6-4.21 1.73-4.21s1.5 1.75 1.5 3.9c-.03 3.3-.37 4.74-1.76 4.74zm0 11.99c-4.63 0-6.72 4.1-6.72 8.76 0 3.16.34 10.93 6.49 10.93 5.54 0 6.87-6 6.87-10.2s-1.13-9.49-6.64-9.49zm0 13.9c-1 0-1.5-1.53-1.5-4.44 0-2.57.6-4.21 1.73-4.21s1.5 1.75 1.5 3.9c-.03 3.31-.37 4.75-1.76 4.75zm0 11.99c-4.63 0-6.72 4.09-6.72 8.75 0 3.16.34 10.93 6.49 10.93 5.54 0 6.87-6 6.87-10.2s-1.13-9.48-6.64-9.48zm0 13.89c-1 0-1.5-1.52-1.5-4.43 0-2.57.6-4.21 1.73-4.21s1.5 1.75 1.5 3.9c-.03 3.3-.37 4.74-1.76 4.74zm1.81 12.1a3.83 3.83 0 0 0-.57 0 2.39 2.39 0 0 0-1.61.88 27.48 27.48 0 0 0-4.91 7.23c-.17.51-.2.7.11 1.1a3.08 3.08 0 0 0 2.51 1.07 2.57 2.57 0 0 0 1.5-.45c-.11 1.24-.17 2.88-.17 5v3.05c0 .57.08 1.61 2.51 1.61a10.39 10.39 0 0 0 1.19-.05c.85-.09 1.44-1.11 1.58-2.55a77.52 77.52 0 0 0 .37-8v-6.64c-.23-1.54-.87-2.25-2.51-2.25zm0 25.89a3.83 3.83 0 0 0-.57 0 2.37 2.37 0 0 0-1.61.87 30.63 30.63 0 0 0-3.16 4h7.88v-2.72c-.26-1.45-.9-2.15-2.54-2.15zM290.63 285a3.63 3.63 0 0 0-.56 0 2.37 2.37 0 0 0-1.61.87 28.09 28.09 0 0 0-4.92 7.23c-.17.51-.2.71.11 1.11a3.11 3.11 0 0 0 2.52 1.07 2.59 2.59 0 0 0 1.5-.45c-.12 1.24-.17 2.88-.17 5v3.06c0 .56.09 1.61 2.52 1.61a8.53 8.53 0 0 0 1.18-.06c.85-.08 1.44-1.1 1.59-2.54a77.25 77.25 0 0 0 .36-8v-6.64c-.23-1.54-.88-2.26-2.52-2.26zM203 46.66a2.57 2.57 0 0 0 1.5-.45c-.12 1.24-.17 2.88-.17 5v3.06c0 .57.08 1.61 2.51 1.61a8.74 8.74 0 0 0 1.19-.06c.84-.08 1.44-1.1 1.58-2.54a77.52 77.52 0 0 0 .37-8v-6.7c-.26-1.52-.91-2.23-2.55-2.23a3.7 3.7 0 0 0-.56 0 2.35 2.35 0 0 0-1.61.88 27.76 27.76 0 0 0-4.92 7.23c-.17.5-.19.7.12 1.1a3.09 3.09 0 0 0 2.54 1.1zm2.66 15.46c-4.64 0-6.73 4.1-6.73 8.76 0 3.16.34 10.93 6.5 10.93 5.54 0 6.86-6 6.86-10.2s-1.13-9.49-6.63-9.49zm0 13.9c-1 0-1.5-1.53-1.5-4.43 0-2.57.59-4.21 1.72-4.21s1.5 1.75 1.5 3.89c-.03 3.31-.38 4.73-1.75 4.73zm0 11.98c-4.64 0-6.73 4.09-6.73 8.75 0 3.17.34 10.94 6.5 10.94 5.54 0 6.86-6 6.86-10.2S211.16 88 205.66 88zm0 13.9c-1 0-1.5-1.53-1.5-4.44 0-2.57.59-4.21 1.72-4.21s1.5 1.75 1.5 3.9c-.03 3.32-.38 4.76-1.75 4.76zm0 11.99c-4.64 0-6.73 4.1-6.73 8.76 0 3.16.34 10.93 6.5 10.93 5.54 0 6.86-6 6.86-10.2s-1.13-9.49-6.63-9.49zm0 13.9c-1 0-1.5-1.53-1.5-4.43 0-2.57.59-4.21 1.72-4.21s1.5 1.75 1.5 3.9c-.03 3.3-.38 4.74-1.75 4.74zm1.8 12.1a3.7 3.7 0 0 0-.56 0 2.35 2.35 0 0 0-1.61.88 27.76 27.76 0 0 0-4.92 7.23c-.17.51-.19.7.12 1.1a3.06 3.06 0 0 0 2.51 1.1 2.57 2.57 0 0 0 1.5-.45c-.12 1.24-.17 2.88-.17 5v3.05c0 .57.08 1.61 2.51 1.61a10.47 10.47 0 0 0 1.19 0c.84-.09 1.44-1.11 1.58-2.55a77.52 77.52 0 0 0 .37-8v-6.64c-.23-1.62-.88-2.33-2.52-2.33zm0 25.89a3.7 3.7 0 0 0-.56 0 2.33 2.33 0 0 0-1.61.87 27.92 27.92 0 0 0-4.92 7.23c-.17.51-.19.71.12 1.1a3.07 3.07 0 0 0 2.51 1.08 2.58 2.58 0 0 0 1.5-.46c-.12 1.25-.17 2.89-.17 5v3.06c0 .56.08 1.61 2.51 1.61a8.74 8.74 0 0 0 1.19-.06c.84-.08 1.44-1.1 1.58-2.54a77.64 77.64 0 0 0 .37-8V168c-.23-1.52-.88-2.22-2.52-2.22zm0 25.88a3.7 3.7 0 0 0-.56 0 2.35 2.35 0 0 0-1.61.88 27.76 27.76 0 0 0-4.92 7.23c-.17.51-.19.7.12 1.1A3.06 3.06 0 0 0 203 202a2.57 2.57 0 0 0 1.5-.45c-.12 1.24-.17 2.88-.17 5v3c0 .57.08 1.61 2.51 1.61a10.47 10.47 0 0 0 1.19-.05c.84-.09 1.44-1.11 1.58-2.55a77.52 77.52 0 0 0 .37-8v-6.64c-.23-1.55-.88-2.26-2.52-2.26zm0 25.89a3.7 3.7 0 0 0-.56 0 2.37 2.37 0 0 0-1.61.87 28.09 28.09 0 0 0-4.92 7.23c-.17.51-.19.71.12 1.11a3.09 3.09 0 0 0 2.51 1.07 2.57 2.57 0 0 0 1.5-.45c-.12 1.24-.17 2.88-.17 5v3.06c0 .56.08 1.61 2.51 1.61a8.74 8.74 0 0 0 1.19-.06c.84-.08 1.44-1.1 1.58-2.54a77.52 77.52 0 0 0 .37-8v-6.64c-.23-1.55-.88-2.26-2.52-2.26zm50.73-178.03v.08c0 .77.12 2.2 3.44 2.2a12.12 12.12 0 0 0 1.62-.08c1.16-.11 2-1.5 2.16-3.47s.3-3.46.37-5h-7.61v2.18c-.02 1.23-.02 2.57.02 4.09zm4.25 11.03a5.23 5.23 0 0 0-.77 0 3.25 3.25 0 0 0-2.2 1.2 37.58 37.58 0 0 0-6.72 9.89c-.24.69-.28 1 .15 1.5a4.21 4.21 0 0 0 3.44 1.47 3.52 3.52 0 0 0 2-.62c-.15 1.7-.23 3.94-.23 6.8V75c0 .77.12 2.2 3.44 2.2a12.12 12.12 0 0 0 1.62-.08c1.16-.11 2-1.5 2.16-3.47a104.62 104.62 0 0 0 .51-11V53.6c-.27-2.08-1.16-3.05-3.4-3.05zm0 35.45a5.23 5.23 0 0 0-.77 0 3.25 3.25 0 0 0-2.2 1.2 37.69 37.69 0 0 0-6.72 9.88c-.24.7-.28 1 .15 1.51a4.21 4.21 0 0 0 3.44 1.47 3.52 3.52 0 0 0 2-.62c-.15 1.7-.23 3.94-.23 6.8v4.17c0 .77.12 2.2 3.44 2.2a12.12 12.12 0 0 0 1.62-.08c1.16-.11 2-1.5 2.16-3.47a104.62 104.62 0 0 0 .51-11V89c-.27-2.08-1.16-3-3.4-3zm0 35.35a5.23 5.23 0 0 0-.77 0 3.25 3.25 0 0 0-2.2 1.2 37.69 37.69 0 0 0-6.72 9.88c-.24.7-.28 1 .15 1.51a4.21 4.21 0 0 0 3.44 1.47 3.52 3.52 0 0 0 2-.62c-.15 1.7-.23 3.94-.23 6.8v4.17c0 .77.12 2.2 3.44 2.2a12.12 12.12 0 0 0 1.62-.08c1.16-.11 2-1.5 2.16-3.47a104.62 104.62 0 0 0 .51-11v-9.01c-.27-2.08-1.16-3.05-3.4-3.05zm23.97-83.69a3.09 3.09 0 0 0 2.52 1.08 2.55 2.55 0 0 0 1.49-.46c-.11 1.25-.17 2.88-.17 5v3c0 .57.09 1.61 2.51 1.61a10.39 10.39 0 0 0 1.19 0c.85-.09 1.44-1.1 1.58-2.54a77.75 77.75 0 0 0 .37-8v-4h-7.8a21.61 21.61 0 0 0-1.83 3.31c-.14.41-.17.61.14 1zm5.17 16.54c-4.63 0-6.72 4.09-6.72 8.75 0 3.17.34 10.93 6.49 10.93 5.54 0 6.87-6 6.87-10.19s-1.13-9.49-6.64-9.49zm0 13.89c-1 0-1.5-1.52-1.5-4.43 0-2.57.6-4.21 1.73-4.21s1.5 1.75 1.5 3.9c-.03 3.3-.37 4.74-1.76 4.74zm1.21 31.59a10.39 10.39 0 0 0 1.19-.05c.85-.09 1.44-1.1 1.58-2.54a77.75 77.75 0 0 0 .37-8v-6.66c-.25-1.53-.9-2.23-2.54-2.23h-.57a2.43 2.43 0 0 0-1.61.88 27.48 27.48 0 0 0-4.91 7.23c-.17.51-.2.71.11 1.1a3.09 3.09 0 0 0 2.52 1.08 2.55 2.55 0 0 0 1.49-.46c-.11 1.25-.17 2.88-.17 5v3.06c.06.55.12 1.59 2.54 1.59zm-1.21 6.32c-4.63 0-6.72 4.09-6.72 8.75 0 3.17.34 10.93 6.49 10.93 5.54 0 6.87-6 6.87-10.19s-1.13-9.49-6.64-9.49zm0 13.89c-1 0-1.5-1.52-1.5-4.43 0-2.57.6-4.21 1.73-4.21s1.5 1.75 1.5 3.9c-.03 3.27-.37 4.71-1.76 4.71zm1.81 12.11a3.83 3.83 0 0 0-.57 0 2.37 2.37 0 0 0-1.61.87 27.48 27.48 0 0 0-4.91 7.23c-.17.51-.2.71.11 1.1a3.09 3.09 0 0 0 2.52 1.08 2.55 2.55 0 0 0 1.49-.46c-.11 1.25-.17 2.89-.17 5v3.06c0 .56.09 1.61 2.51 1.61a8.67 8.67 0 0 0 1.19-.06c.85-.09 1.44-1.1 1.58-2.54a77.75 77.75 0 0 0 .37-8v-6.69c-.22-1.53-.9-2.2-2.51-2.2zm0 25.85a3.83 3.83 0 0 0-.57 0 2.39 2.39 0 0 0-1.61.88 27.48 27.48 0 0 0-4.91 7.27c-.17.5-.2.7.11 1.1a3.11 3.11 0 0 0 2.52 1.07 2.54 2.54 0 0 0 1.49-.45c-.11 1.24-.17 2.88-.17 5v3.06c0 .57.09 1.61 2.51 1.61a8.67 8.67 0 0 0 1.19-.06c.85-.08 1.44-1.1 1.58-2.54a77.52 77.52 0 0 0 .37-8v-6.64c-.22-1.59-.9-2.3-2.51-2.3zM329.2 41.84a45.27 45.27 0 0 0-8.06 11.86c-.28.83-.32 1.16.19 1.81a5.07 5.07 0 0 0 4.12 1.76 4.22 4.22 0 0 0 2.45-.74c-.18 2-.27 4.72-.27 8.15v5c.05.93.14 2.64 4.13 2.64a15.43 15.43 0 0 0 1.94-.09c1.39-.14 2.36-1.81 2.6-4.17a129.5 129.5 0 0 0 .6-13.16v-7.08a38.45 38.45 0 0 0-6.84-6.77 5.79 5.79 0 0 0-.86.79zm.6 40.8c-7.59 0-11 6.72-11 14.36 0 5.19.55 17.93 10.65 17.93 9.08 0 11.26-9.87 11.26-16.72s-1.87-15.57-10.91-15.57zm0 22.79c-1.62 0-2.46-2.5-2.46-7.27 0-4.22 1-6.9 2.83-6.9s2.45 2.87 2.45 6.39c-.04 5.42-.62 7.78-2.86 7.78zm0 19.68c-7.59 0-11 6.72-11 14.36 0 5.19.55 17.93 10.65 17.93 9.08 0 11.26-9.87 11.26-16.72-.02-7-1.87-15.57-10.91-15.57zm0 22.79c-1.62 0-2.46-2.5-2.46-7.27 0-4.22 1-6.9 2.83-6.9s2.45 2.87 2.45 6.39c-.04 5.42-.62 7.78-2.86 7.78z" fill="#0bf2fa"></path><path d="M34.8 305.69c-3.6 7.91-5.14 20.86-3.76 28.81l.09.5h38.62a86.34 86.34 0 0 0-.9-14.63z" fill="#829eca"></path><path d="M69.75 335a86.34 86.34 0 0 0-.9-14.63l-34-14.68c-3.6 7.91-5.14 20.86-3.76 28.81l.09.5" stroke-width="4" stroke-linecap="round" stroke-linejoin="round" stroke="#414141" fill="none"></path><path d="M311.62 290.69s1.8 23.53 8.64 22.67 5-7.11 5-7.11 1.14 16.41 9 17.27 7.12-9 7.12-9 6-1.8 6.63-8.06c0 0 4.08-2.56 3.61-10.63s-4.93-20.32-10.24-27.19z" stroke="#404041" fill="#cbebf9" stroke-width="4" stroke-linecap="round" stroke-linejoin="round"></path><path d="m255.41 195.71-153.52 19.36c-56.6 27.75-67.09 90.62-67.09 90.62 11.48 14.93 40.92 20.62 40.92 20.62 3-8.16 8.65-17.77 14.09-26-.57 13.51-.69 25.94-.68 34.72h193.7c-.79-12.18-3.06-42.2-7.74-69.44 8.56 7.31 23.58 20.91 31.2 32.47 0 0 27.36-12.25 35.13-29.41 0-.03-24.57-58.85-86.01-72.94z" fill="#58595b"></path><path d="M34.8 305.69c11.48 14.93 40.92 20.62 40.92 20.62 3-8.16 8.65-17.77 14.09-26-.57 13.51-.69 25.94-.68 34.72h91V205.2l-78.27 9.87c-56.57 27.75-67.06 90.62-67.06 90.62z" fill="#414244"></path><path d="M282.83 335c-.79-12.18-3.06-42.2-7.74-69.44 8.56 7.31 23.58 20.91 31.2 32.47 0 0 27.36-12.25 35.13-29.41 0 0-24.57-58.82-86-72.91l-153.53 19.36c-56.6 27.75-67.09 90.62-67.09 90.62 11.48 14.93 40.92 20.62 40.92 20.62 3-8.16 8.65-17.77 14.09-26-.57 13.51-.69 25.94-.68 34.72m252.29-20.53a43.27 43.27 0 0 0-.86-9.77m7.49 1.71a23.11 23.11 0 0 0-.85-8.82" stroke="#404041" stroke-width="4" stroke-linecap="round" stroke-linejoin="round" fill="none"></path><path d="M104.85 221.14s55.38 40.11 54 113.86h53.4c-7.29-66.62 34.27-109.63 43.27-118.09l-.05-1.47z" fill="#6d6e70"></path><path d="M212.2 335c-7.29-66.62 34.27-109.63 43.27-118.09l-.05-1.47-150.57 5.7s55.38 40.11 54 113.86" stroke="#404041" stroke-width="4" stroke-linecap="round" stroke-linejoin="round" fill="none"></path><path d="M111.94 227.12q.09 0 .06.06a151.63 151.63 0 0 1 30 38.74c11.53 21.34 17.28 48.2 17 69.08h32.48c-13.29-52-12.79-86.26-12.79-86.26s26.09-17.18 30.39-31.54l-104.2 3.94a87.55 87.55 0 0 1 7.06 5.98z" fill="#58595b"></path><path d="M235.22 131.22c14.67-6.26 28.06-19.55 15.45-21.32-9-1.26-18 4-24 8.62-9.51-11.82-21.91-20.47-38.11-22.92-3.87-16.8-8.93-33.91-13.48-34.06-4.53.49-8.28 17.94-10.87 35-16 3.67-27.68 13.24-36.27 25.74-6.31-4.17-15.67-8.72-24.58-6.78-12.45 2.71 1.91 15 17 20.09-19.38 41.29-15.14 99.17-15.14 99.17s26.82 15.76 73.42 14S257.81 229 257.81 229s-.15-58.07-22.59-97.78z" stroke="#404041" fill="#cbebf9" stroke-width="4" stroke-linecap="round" stroke-linejoin="round"></path><path d="M178.63 155.48c-1.61-10.1 1.77-16.07 4.49-19.1a3.47 3.47 0 0 0-.32-5c-15.48-13.56-16.14-47.29-16.14-47.29l-.3-.2c-.78 4-1.51 8.33-2.15 12.6-16 3.67-27.68 13.24-36.27 25.74-6.31-4.17-15.67-8.72-24.58-6.78-12.45 2.71 1.91 15 17 20.09-19.38 41.29-15.14 99.17-15.14 99.17s26.82 15.76 73.42 14z" fill="#829eca"></path><path stroke="#404041" stroke-width="4" stroke-linecap="round" stroke-linejoin="round" fill="none" d="m189.74 143.5-11.11 11.98-11.97-11.11"></path><circle cx="135.5" cy="151.33" r="10.75" fill="#829eca"></circle><circle cx="221.33" cy="148.08" r="10.75" fill="#cbebf9"></circle><path d="M235.22 131.22c14.67-6.26 28.06-19.55 15.45-21.32-9-1.26-18 4-24 8.62-9.51-11.82-21.91-20.47-38.11-22.92-3.87-16.8-8.93-33.91-13.48-34.06-4.53.49-8.28 17.94-10.87 35-16 3.67-27.68 13.24-36.27 25.74-6.31-4.17-15.67-8.72-24.58-6.78-12.45 2.71 1.91 15 17 20.09-19.38 41.29-15.14 99.17-15.14 99.17s26.82 15.76 73.42 14S257.81 229 257.81 229s-.15-58.07-22.59-97.78z" stroke="#404041" stroke-width="4" stroke-linecap="round" stroke-linejoin="round" fill="none"></path><path d="M195 127.78s-11-65.95-19.92-66.24c-8.91 1-14.81 67.55-14.81 67.55" stroke="#404041" stroke-width="4" stroke-linecap="round" stroke-linejoin="round" fill="none"></path><path d="M104.85 221.15c-.39-13.59 2-34.43 2-34.43-26.14 1.21-39.27 26.71-39.27 26.71 79.86 43.33 90.34 98.9 91 121.57h.15c1.5-73.74-53.88-113.85-53.88-113.85z" fill="#58595b"></path><path d="M104.85 221.15c-.39-13.59 2-34.43 2-34.43-26.14 1.21-39.27 26.71-39.27 26.71 79.86 43.33 90.34 98.9 91 121.57h.15c1.5-73.74-53.88-113.85-53.88-113.85z" stroke="#404041" stroke-width="4" stroke-linecap="round" stroke-linejoin="round" fill="none"></path><path d="M252.55 181.21s4 20.59 4.62 34.17c0 0-53.15 45-45 119.62h.06c-1.46-21.16 2.73-79.35 81.47-130.13.03 0-14.98-24.44-41.15-23.66z" fill="#58595b"></path><path d="M252.55 181.21s4 20.59 4.62 34.17c0 0-53.15 45-45 119.62h.06c-1.46-21.16 2.73-79.35 81.47-130.13.03 0-14.98-24.44-41.15-23.66z" stroke="#404041" stroke-width="4" stroke-linecap="round" stroke-linejoin="round" fill="none"></path><path d="M165.43 125A19.44 19.44 0 0 1 155 143.22c-9.32 4.67-19.2.14-22.18-8.76v-.05a15.36 15.36 0 0 1 .95-11.58 3.56 3.56 0 0 1 3-2l25-.95a3.46 3.46 0 0 1 3.63 3.21c-.03.22.03 1.77.03 1.91z" fill="#58595b"></path><path d="M223.17 127.63c-.07 8.9-8 15.82-16.89 15.11a18.2 18.2 0 0 1-15.84-12.48c-1-2.73-.91-5.46-1-8a3.46 3.46 0 0 1 3.38-3.47l25-1a3.42 3.42 0 0 1 3.05 1.55 15.18 15.18 0 0 1 2.3 8.29z" fill="#6d6f70"></path><path d="m154.55 120.2-18.47 19.91a15.11 15.11 0 0 1-3.29-5.65v-.05a15.36 15.36 0 0 1 .95-11.58 3.56 3.56 0 0 1 3-2z" fill="#6d6e70"></path><path d="m209.77 118.11-16.38 17.67c-3.92-5.06-3.8-9.59-4-13.51a3.46 3.46 0 0 1 3.38-3.47z" fill="#808083"></path><path d="M165.43 125A19.44 19.44 0 0 1 155 143.22c-9.32 4.67-19.2.14-22.18-8.76v-.05a15.36 15.36 0 0 1 .95-11.58 3.56 3.56 0 0 1 3-2l25-.95a3.46 3.46 0 0 1 3.63 3.21c-.03.22.03 1.77.03 1.91zm57.74 2.63c-.07 8.9-8 15.82-16.89 15.11a18.2 18.2 0 0 1-15.84-12.48c-1-2.73-.91-5.46-1-8a3.46 3.46 0 0 1 3.38-3.47l25-1a3.42 3.42 0 0 1 3.05 1.55 15.18 15.18 0 0 1 2.3 8.29z" stroke-miterlimit="10" stroke-width="4" stroke="#414141" fill="none"></path><path d="M165.47 126.19s3.08-3.59 11.91-3.92 12.16 3 12.16 3" stroke-miterlimit="10" stroke-width="4" stroke="#414141" fill="none"></path><path d="M135 254.19a174.16 174.16 0 0 0 44 3.73 203.42 203.42 0 0 0 51.47-8.75m44.62 16.39s-4.95-5-9.51-7.5M89.81 300.28S95 292.35 100.44 289" stroke="#404041" stroke-width="4" stroke-linecap="round" stroke-linejoin="round" fill="none"></path></g></svg>