<svg data-name="Layer 1" xmlns="http://www.w3.org/2000/svg" viewBox="0 0 300 300"><g transform="matrix(0.8108108108108109,0,0,0.8108108108108109,0,0)"><path d="M353.31 249.56c0 80.43-73.49 86.17-164.14 86.17S25 330 25 249.56s73.52-145.63 164.17-145.63 164.14 65.2 164.14 145.63z" fill="#333533"></path><path d="M311.29 335c-2.53-67.56-14.94-96.93-14.94-96.93L98.18 249.32C90.9 274.46 86.35 309.39 83.77 335z" fill="#edf2fb"></path><path d="M311.29 335c-2.53-67.56-14.94-96.93-14.94-96.93" stroke-linecap="round" stroke-linejoin="round" stroke-width="4" stroke="#404041" fill="none"></path><path stroke="#edf2fb" stroke-linecap="round" stroke-linejoin="round" stroke-width="4" fill="none" d="m146.28 335 13.11-46.6"></path><path d="M189.27 103.56s21-35 30.63-26.12-7.23 26.8-21.68 31.28" stroke="#414141" fill="#829eca" stroke-linecap="round" stroke-linejoin="round" stroke-width="4"></path><path d="M296.35 238.07s7.77-150.93-88.88-150.93c-114.55 0-109.29 162.18-109.29 162.18s23.23 39.68 198.17-11.25z" fill="#cbebf9" stroke-linecap="round" stroke-linejoin="round" stroke-width="4" stroke="#404041"></path><path stroke="#414141" stroke-linecap="round" stroke-linejoin="round" stroke-width="4" fill="none" d="m141.85 134.44 4.48 3.79 27.18-6.19m2.07-8.61s-4.13 8.26 0 16.87"></path><circle cx="209.08" cy="132.04" r="15.85" fill="#f9c1b6"></circle><ellipse cx="199.91" cy="119.54" rx="5.99" ry="8.98" fill="#404041"></ellipse><path d="M125 152.05c4.81 1.14 10.35-4.84 12.37-13.35 1.82-7.67.17-14.76-3.69-16.94a125.68 125.68 0 0 0-14.17 22.5c.71 4.1 2.65 7.11 5.49 7.79z" fill="#f9c1b6"></path><ellipse cx="136.59" cy="125.67" rx="8.98" ry="3.38" transform="rotate(-76.63 136.596 125.665)" fill="#404041"></ellipse><path d="M296.35 238.07s7.77-150.93-88.88-150.93c-114.55 0-109.29 162.18-109.29 162.18s23.23 39.68 198.17-11.25z" stroke-linecap="round" stroke-linejoin="round" stroke-width="4" stroke="#404041" fill="none"></path><path d="M118.11 213.93c-4.59-.15-5.5 3.44-5.5 3.44s-3.44-6.78-9.64-6.58c-8.34.27-8 3.6-8 3.6-2.24-2.4-5.82-4.38-11.25-2.87C71.16 215 81 254.19 81 254.19s-14.11 11-33 38.19c-12.58 18.08-6.92 34-1.7 42.62h65.14a122.35 122.35 0 0 0 11.53-13.37c40.83-54.36 5.84-107.36-4.86-107.7z" fill="#cbebf9"></path><path d="M111.36 335a122.35 122.35 0 0 0 11.53-13.37c40.91-54.36 5.92-107.36-4.78-107.7-4.59-.15-5.5 3.44-5.5 3.44s-3.44-6.78-9.64-6.58c-8.34.27-8 3.6-8 3.6-2.24-2.4-5.82-4.38-11.25-2.87C71.16 215 81 254.19 81 254.19s-14.11 11-33 38.19c-12.58 18.08-6.92 34-1.7 42.62" stroke-linecap="round" stroke-linejoin="round" stroke-width="4" stroke="#404041" fill="none"></path><path d="M217.64 287.22s-19.31-11.81-37.68-38.4c0 0 9.31-21.42 6.59-25.19-6.06-8.38-15.07 2.36-15.07 2.36s4.24-10.37-4.71-13.66-12.64 8.24-12.72 8.47c.07-.22 3.19-10.38-6.59-12.24s-23.56 21.2-24.5 42.86c-1.51 34.76 21.2 64.41 46.31 83.58h90.59c7.23-6.8 12.28-12.45 12.28-12.45l-47.22-41.92z" fill="#cbebf9"></path><path d="M259.86 335c7.23-6.8 12.28-12.45 12.28-12.45l-47.22-41.92-7.28 6.59s-19.31-11.81-37.68-38.4c0 0 9.31-21.42 6.59-25.19-6.06-8.38-15.07 2.36-15.07 2.36s4.24-10.37-4.71-13.66-12.64 8.24-12.72 8.47c.07-.22 3.19-10.38-6.59-12.24s-23.56 21.2-24.5 42.86c-1.51 34.76 21.2 64.41 46.31 83.58" stroke-linecap="round" stroke-linejoin="round" stroke-width="4" stroke="#404041" fill="none"></path><path d="M199.22 253.64s12.6-19 11.25-23.21c-3-9.34-12.91-.66-12.91-.66s5.88-9.25-.69-14.21-12.4 5.76-12.4 5.76 5.11-9.43-2.56-13.2-24.23 16-30 36.9m62.77-37.36s7 4.5 8 15m4.85-19.66s6.42 5.07 6.76 19.61" stroke-linecap="round" stroke-linejoin="round" stroke-width="4" stroke="#404041" fill="none"></path><path d="M220 280.63A187.3 187.3 0 0 1 265.51 335h12.31c17.05-14.24 50.61-47.9 24.6-74.63-33.91-34.85-82.42 20.26-82.42 20.26z" fill="#edf2fb"></path><path d="M277.82 335c17.05-14.24 50.61-47.9 24.6-74.63-33.91-34.85-82.42 20.26-82.42 20.26A187.3 187.3 0 0 1 265.51 335m-153.36-73.86s-3-16.06 11.86-18.52" stroke-linecap="round" stroke-linejoin="round" stroke-width="4" stroke="#404041" fill="none"></path><path d="M173.51 99c.69-1.37 3.79-20.82 13.42-20.56S195.19 99 195.19 99" fill="#cbebf9" stroke-linecap="round" stroke-linejoin="round" stroke-width="4" stroke="#404041"></path><path d="M141.86 118.27s20.67-87.2 30.62-79.14C179.71 45 182.8 100 182.8 100m72.61 14.83s21-35 30.62-26.11-7.23 26.8-21.68 31.27" fill="#cbebf9" stroke-linecap="round" stroke-linejoin="round" stroke-width="4" stroke="#404041"></path><path d="M68 253.64c-1 .68-13.11-32.45 2.07-32.45m-21.36 16.23c0-1.39-2.41-15.2 8.29-22.27m-20.13 15.5c.45-.83.8-14.74 8.74-19.86" stroke-linecap="round" stroke-linejoin="round" stroke-width="4" stroke="#404041" fill="none"></path><path d="M40.05 175.92a2.11 2.11 0 0 1-1.45 2.9 4 4 0 0 1-1.28.16 7.75 7.75 0 0 0-2.74.11c-2.82.92-2.84 3.44-2.27 5.19a3.69 3.69 0 0 0 4.4 2.59c2.65-.75 2.66-2.92 4.44-3.5a4.61 4.61 0 0 1 .53-.15 1.62 1.62 0 0 1 1.77 1.16 4 4 0 0 1 .19 1c.3 3.14-2.71 5.89-5.3 6.73-4.89 1.59-9.35-1.81-10.8-6.26-1.59-4.89.12-9.93 5.18-11.72a8.32 8.32 0 0 1 5.12-.16 3.16 3.16 0 0 1 2.21 1.95zm3.58-5.36c1.49-.48 2.71-.71 3.55 1.33.07.21.17.41.23.62.28 1 1.48 5.42 2.3 7.93a7.23 7.23 0 0 0 .66 1.6c1.79-.21 3.16-1.06 4.9-1a1.74 1.74 0 0 1 1.8 1.44c1.09 3.34-.73 4-3.42 4.87-.55.18-.82.23-1 .3-3.11.93-5.45.77-6.81-2a37.16 37.16 0 0 1-2-4.94 65.89 65.89 0 0 1-2-7.86c-.13-1.44 1.21-2.1 1.79-2.29zm27.55 6.9c.59 1.83.6 3.91-1.64 4.65-2.85.92-3.83-4.4-4.43-5.07a2.09 2.09 0 0 0-1.48.08c-.6.19-1.13.51-1.13.77 0 .57.13 1 .18 1.62.13 1.66.76 4.46-1.2 5.1s-3.52-1.83-3.9-3.35a53.16 53.16 0 0 1-1.58-7.92c-.57-3.8-.21-6.87 3.58-8.1 5.46-1.78 7.9 3.76 10.05 8.67.37.87 1.13 2.27 1.55 3.55zm-10.35-4.78c.31 1 .74 1 1.57.76h.14c.86-.29 1.16-.62.84-1.58s-1.38-2.76-2.18-2.48-.79 2.02-.37 3.3zm17.3 1.65c.29 1.32.57 2.36.73 3.64 0 .83-1.09 1.62-2.06 1.94s-2.17.19-2.55-.64a69 69 0 0 1-2.66-7.11c-.92-2.83-1.69-5.7-2.36-8.41.45-1.18 2.33-2.32 4.29-3 4-1.28 8.63-1 10.29 4.06 1.44 4.41-1.23 8-5.36 9.38zm-1.68-4.63a1.15 1.15 0 0 0 .82 0 2.73 2.73 0 0 0 1.84-3.49 2.32 2.32 0 0 0-3-1.63 2.18 2.18 0 0 0-1.09.73zm164.13 1.2a2.12 2.12 0 0 1-3.13.86 3.93 3.93 0 0 1-1-.85 8 8 0 0 0-1.91-2c-2.57-1.49-4.46.18-5.38 1.77a3.67 3.67 0 0 0 1 5c2.32 1.48 4 0 5.57 1a3.37 3.37 0 0 1 .46.31 1.6 1.6 0 0 1 .32 2.08 4.26 4.26 0 0 1-.58.78c-2.14 2.32-6.19 1.91-8.55.55-4.45-2.58-4.89-8.17-2.55-12.22 2.58-4.45 7.47-6.54 12.18-4a8.25 8.25 0 0 1 3.54 3.7 3.19 3.19 0 0 1 .03 3.02zm6.42-.9c1.35.78 2.34 1.55 1.38 3.53-.11.19-.2.4-.31.59-.52.84-3.05 4.71-4.37 7a6.84 6.84 0 0 0-.75 1.57c1.35 1.19 2.9 1.64 4.05 2.94a1.74 1.74 0 0 1 .13 2.3c-1.76 3.05-3.46 2.13-5.91.71-.5-.29-.72-.45-.91-.56-2.77-1.7-4.21-3.55-3.06-6.41a38.4 38.4 0 0 1 2.35-4.77 67.52 67.52 0 0 1 4.55-6.71A2.28 2.28 0 0 1 247 170zm13.21 25.11c-1 1.66-2.5 3.06-4.55 1.87-2.59-1.5.71-5.78.82-6.67-.05-.31-.52-.75-1.05-1.05s-1.14-.5-1.33-.33c-.42.39-.68.78-1.09 1.21-1.14 1.22-2.82 3.55-4.6 2.52s-1-3.84-.1-5.14a53.33 53.33 0 0 1 4.86-6.43c2.45-3 5-4.75 8.43-2.75 5 2.88 2.47 8.39.25 13.27-.42.84-.97 2.33-1.64 3.5zm-3.35-10.9c-.51.88-.27 1.24.49 1.68l.12.07c.78.45 1.23.46 1.74-.42s1.12-2.82.36-3.26-2.03.72-2.71 1.93zm10.33 13.99c-.8 1.09-1.38 2-2.23 3-.65.52-1.94.28-2.82-.23s-1.58-1.49-1.22-2.33a65.88 65.88 0 0 1 3.52-6.73c1.48-2.57 3.11-5.06 4.67-7.37 1.19-.45 3.29.19 5.08 1.23 3.59 2.08 6.53 5.72 3.85 10.36-2.33 4-6.81 4.45-10.57 2.27zm2.32-4.35c0 .2.32.5.53.63a2.75 2.75 0 0 0 3.83-1 2.32 2.32 0 0 0-.78-3.31 2.12 2.12 0 0 0-1.28-.33z" fill="#ed2c49"></path><path d="M95 214.39s1.69 3.18 3.44 12.26m14.17-9.28s.73 3.13 1.61 9.28M92 228.25s14.94-1.76 26.67 0" stroke-linecap="round" stroke-linejoin="round" stroke-width="4" stroke="#404041" fill="none"></path></g></svg>