<svg data-name="Layer 1" xmlns="http://www.w3.org/2000/svg" viewBox="0 0 450 450"><g transform="matrix(1.2162162162162162,0,0,1.2162162162162162,0,0)"><path d="M216.71 171s-1.88-14.72-15.88-21.26-3.5 20.11 3.08 28" stroke-width="4" stroke-linecap="round" stroke-linejoin="round" stroke="#404041" fill="#cbebf9"></path><path d="M285.48 334.19c3.87-18.25 4.85-30 2.08-39.39l-133.74-33.48c-10.7 10.89-16 31-26.37 72.87z" fill="#edf2fb"></path><path d="M286.87 327.22c2.67-14.37 3.09-24.26.69-32.42l-133.74-33.48c-10 10.22-15.35 28.53-24.51 65.36" fill="none" stroke-width="4" stroke-linecap="round" stroke-linejoin="round" stroke="#404041"></path><path d="M312.23 184c-11.75-3.53-21.22 1.87-24.63 4.25-6.72-14.16-18-25.39-36.22-30-19.59-4.92-35.74.72-48.86 11.45h0c-34.53 28.23-48.1 91.78-48.1 91.78s19.26 20.44 60.1 30.68 73.62 2.84 73.62 2.84 14.54-50.35 5.11-90.44h0c-.16-.7-.35-1.38-.53-2.07 10.89-2.32 33.67-14.3 19.51-18.49z" stroke-width="4" stroke-linecap="round" stroke-linejoin="round" stroke="#404041" fill="#cbebf9"></path><path d="M242.47 212c-2.26 9-10.26 17-17.24 15.21s-10.28-12.54-8-21.54a20.39 20.39 0 0 1 3.61-7.52 1.73 1.73 0 0 1 1.3-.67 1.71 1.71 0 0 1 1.34.57l4.62 7a1.73 1.73 0 0 0 1.86.47l10.62-3.2a1.72 1.72 0 0 1 2.28 1.33 20.44 20.44 0 0 1-.39 8.35z" fill="#e15f5f"></path><path d="M259.93 170.5c.08-6.49-.27-15.94-2.89-16.73-4.13-.83-13.15 18.87-13.15 18.87" stroke-width="4" stroke-linecap="round" stroke-linejoin="round" stroke="#404041" fill="#cbebf9"></path><path d="M252.36 174.77c1.59-17.91 3.25-46.18-2-47.89-8-1.42-29.91 54.82-29.91 54.82" stroke-width="4" stroke-linecap="round" stroke-linejoin="round" stroke="#404041" fill="#cbebf9"></path><path d="M242.47 212c-2.26 9-10.26 17-17.24 15.21s-10.28-12.54-8-21.54a20.39 20.39 0 0 1 3.61-7.52 1.73 1.73 0 0 1 1.3-.67 1.71 1.71 0 0 1 1.34.57l4.62 7a1.73 1.73 0 0 0 1.86.47l10.62-3.2a1.72 1.72 0 0 1 2.28 1.33 20.44 20.44 0 0 1-.39 8.35z" fill="none" stroke-width="4" stroke-linecap="round" stroke-linejoin="round" stroke="#404041"></path><circle cx="197.56" cy="195.76" r="9.71" fill="#f9c1b6"></circle><circle cx="272.78" cy="214.63" r="9.71" fill="#f9c1b6"></circle><ellipse cx="206.02" cy="186.84" rx="5.5" ry="3.67" transform="rotate(-75.92 206.019 186.832)" fill="#404041"></ellipse><ellipse cx="269.53" cy="202.77" rx="5.5" ry="3.67" transform="rotate(-75.92 269.52 202.764)" fill="#404041"></ellipse><path stroke="#333533" fill="none" stroke-width="4" stroke-linecap="round" stroke-linejoin="round" d="m176.22 311.68-18.85 7.64 10.41 14.87m52.35-8.95 5.96 8.95m-36.03 0 20.84-23.7m-59.02-38.89S171.14 292 212 302.29a184 184 0 0 0 46.77 5.42"></path><path d="M263.25 300.69s41.35-24.57 55.48-57.86c0 0-8.07-11.85 0-13.87 2-.51 4.4 2.26 6.82 4.76 0 0 6.93-13.57 12.73-10.81s2.52 10.84 2.52 10.84 4.67-7.12 10.4-3.18 0 15 0 15 4.23-5.81 9.78-2c5.16 3.52 6.23 29.47-61.56 86" stroke-width="4" stroke-linecap="round" stroke-linejoin="round" stroke="#404041" fill="#cbebf9"></path><path d="M277.14 334.19h29.7a67.26 67.26 0 0 0 6.33-5.57L283.1 286.4a178.82 178.82 0 0 1-19.85 14.29" fill="#edf2fb"></path><path d="M306.84 334.19a67.26 67.26 0 0 0 6.33-5.57L283.1 286.4a178.82 178.82 0 0 1-19.85 14.29" fill="none" stroke-width="4" stroke-linecap="round" stroke-linejoin="round" stroke="#404041"></path><path d="M95.38 334.19c3-3.42 8.17-8.27 15.29-10.56a41.06 41.06 0 0 0 .93 10.56h32.54c.68-8.54-5.46-17.94-5.46-17.94 12-2.48 22.87 3.52 22.87 3.52s-.62 6.34 3.24 5.52 2.33-5.54 2.33-5.54a3.61 3.61 0 0 1 1.13.05 3.31 3.31 0 0 0 4.06-3.32c-.17-3-2.24-6.08-8-8.57a61.9 61.9 0 0 0-34.61-3.84l-17.14 4.52A62 62 0 0 0 84.29 329a19.34 19.34 0 0 0-2.94 5.21z" fill="#ffffff"></path><path d="M100.36 329.35a32.17 32.17 0 0 1 10.31-5.72 41.06 41.06 0 0 0 .93 10.56" fill="none" stroke-width="4" stroke-linecap="round" stroke-linejoin="round" stroke="#404041"></path><path d="M144.14 334.19c.68-8.54-5.46-17.94-5.46-17.94 12-2.48 22.87 3.52 22.87 3.52s-.62 6.34 3.24 5.52 2.33-5.54 2.33-5.54a3.61 3.61 0 0 1 1.13.05 3.31 3.31 0 0 0 4.06-3.32c-.17-3-2.24-6.08-8-8.57a61.9 61.9 0 0 0-34.61-3.84l-17.14 4.52a62.21 62.21 0 0 0-25.88 17.49" fill="none" stroke-width="4" stroke-linecap="round" stroke-linejoin="round" stroke="#404041"></path><path d="M65.64 334.19H102a47.18 47.18 0 0 0-2.16-6.37s5.09 3.73 7.52 1.46.23-8.11-10.75-10.63c0 0 8.32-10.67 27.39-14.36s-20.14-26.12-20.14-26.12-48.22 11.4-39.43 51.11c.35 1.77.77 3.4 1.21 4.91z" fill="#cbebf9"></path><path d="M102 334.19a47.18 47.18 0 0 0-2.16-6.37s5.09 3.73 7.52 1.46.23-8.11-10.75-10.63c0 0 8.32-10.67 27.39-14.36s-20.14-26.12-20.14-26.12-48.22 11.4-39.43 51.11c.4 1.77.82 3.4 1.26 4.91" fill="none" stroke-width="4" stroke-linecap="round" stroke-linejoin="round" stroke="#404041"></path><path d="m105.24 311.69 2.78 1.88s9.55 6.47 9.81 6.4c0 0 .43-.61 1-1.44" fill="none" stroke-width="4" stroke-linecap="round" stroke-linejoin="round" stroke="#404041"></path><path fill="#ed2c49" d="m133.83 334.19-6.15-14.57-5.78 1.52 1.52 13.05h10.41z"></path><path fill="none" stroke-width="4" stroke-linecap="round" stroke-linejoin="round" stroke="#404041" d="m133.83 334.19-6.15-14.57-5.78 1.52 1.52 13.05"></path><path d="m129.38 315.73-1.8 3.91-5.67 1.5-3.12-2.61c1.42-2.28 4-6.44 4-6.44s4.21 2.37 6.59 3.64z" fill="#ed2c49" stroke-width="4" stroke-linecap="round" stroke-linejoin="round" stroke="#404041"></path><path d="M129.38 315.73c.87.47 1.49.79 1.54.79.27-.07 5.39-10.4 5.39-10.4l1.46-2.94" fill="none" stroke-width="4" stroke-linecap="round" stroke-linejoin="round" stroke="#404041"></path><path d="M155.63 225.4a15.47 15.47 0 0 0-29-3.3 47.38 47.38 0 0 0-54.89 12.47A15.47 15.47 0 1 0 60.35 262a47.37 47.37 0 1 0 88.37-20 15.48 15.48 0 0 0 6.91-16.6z" fill="#ffffff" stroke-width="4" stroke-linecap="round" stroke-linejoin="round" stroke="#404041"></path><ellipse cx="136.16" cy="246.5" rx="10.81" ry="4.93" transform="rotate(-12.79 136.2 246.589)" fill="#f9c1b6"></ellipse><ellipse cx="73.64" cy="260.69" rx="10.81" ry="4.93" transform="rotate(-12.79 73.674 260.766)" fill="#f9c1b6"></ellipse><path fill="none" stroke-width="4" stroke-linecap="round" stroke-linejoin="round" stroke="#404041" d="m102.64 243.66 1.7 7.47"></path><path d="m103.15 245.9 1.93-3.06a1.21 1.21 0 0 0 0-1.33 1.2 1.2 0 0 0-1.24-.47l-3.35.76a1.19 1.19 0 0 0-.37 2.17z" stroke-miterlimit="10" fill="#424143" stroke-width="1.5" stroke="#404041"></path><circle cx="81.9" cy="248.25" r="3.31" fill="#404041"></circle><circle cx="123.34" cy="238.84" r="3.31" fill="#404041"></circle><path d="M95 249.33s2.77 3.78 9.41 2.27 7.16-6 7.16-6" fill="none" stroke-width="4" stroke-linecap="round" stroke-linejoin="round" stroke="#404041"></path><path d="M125.6 40.13C-6.29 43.73-14.81 132 55.42 162.1A103.7 103.7 0 0 0 98 194.28c-7.43-8.89-12.91-16.72-16.68-26.31a280.5 280.5 0 0 0 44.31 3.34c9.81 0 19.23-.47 28.63-.84v-.48C273.52 157.87 287 35.72 125.6 40.13z" fill="#ffffff" stroke-width="4" stroke-linecap="round" stroke-linejoin="round" stroke="#404041"></path><ellipse cx="85.79" cy="132.15" rx="34.75" ry="18.8" fill="#d5d6d5"></ellipse><path d="M85.79 85.63H110l-5.91 47c0 4.94-8.2 9-18.31 9s-18.3-4-18.3-9l-5.91-47h24.22" fill="#ed2c49"></path><path d="M76.23 109.51a69.27 69.27 0 0 0-12.34-6l1.8 14.33c1.46.76 2.84 1.53 4.08 2.29A32.68 32.68 0 0 0 87 125a40.86 40.86 0 0 0 17.61-4.3c.33-.15.64-.32 1-.48l2-15.83c-6.05 4.61-19.19 12.61-31.38 5.12z" fill="#ffffff"></path><path d="M85.79 85.11H110l-5.91 47c0 4.94-8.2 8.94-18.31 8.94s-18.3-4-18.3-8.94l-5.91-47h24.22" stroke-miterlimit="10" fill="none" stroke-width="4" stroke="#404041"></path><path d="M110 79.87c-4.12-4.53-13.4-7.7-24.21-7.7s-20.09 3.17-24.21 7.7H59.3v5.24c0 7.15 11.86 13 26.49 13s26.5-5.8 26.5-13v-5.24z" fill="#d0d2d3"></path><ellipse cx="85.79" cy="79.87" rx="26.49" ry="12.94" fill="#f1f1f2" stroke="#bbbdbf" stroke-miterlimit="10"></ellipse><path d="M112.29 79.87c0-7.15-11.87-13-26.5-13s-26.49 5.8-26.49 13h0v5.24c0 7.15 11.86 13 26.49 13s26.5-5.8 26.5-13v-5.24z" fill="none" stroke-width="4" stroke-linecap="round" stroke-linejoin="round" stroke="#404041"></path><path d="M85.79 79.87h-.12c-2.28-.07-4.07-.94-4-3.22L82 64.37a4.17 4.17 0 0 1 1.21-2.81l12.91-12.88a4.13 4.13 0 0 1 5.88 5.84L90.24 66.25l-.32 10.64c-.06 2.24-1.92 2.98-4.13 2.98z" stroke-miterlimit="10" fill="#ffffff" stroke-width="4" stroke="#404041"></path><ellipse cx="159.42" cy="137.61" rx="43.96" ry="23.78" fill="#d5d6d5"></ellipse><path d="M188.16 115.67c-6.07-5.47-16.66-9.11-28.74-9.11s-22.67 3.64-28.74 9.11h-5.4v10.63c0 10.91 15.28 19.74 34.14 19.74s34.14-8.83 34.14-19.74v-10.63z" fill="#be9664" stroke-width="4" stroke-linecap="round" stroke-linejoin="round" stroke="#404041"></path><path d="M114.07 121.17s3.49-4.76 9.51 3.78 12.39 2.16 16.29 3.6 2.47 9.45 10.28 10.07 9.86-7.6 16.22-5.55 6.17 8.63 12.74 7.4 7.7-10.05 14.79-10.24 2.28-22.93-14.41-25.79-41.1-13.05-65.42 16.73z" fill="#93c83d"></path><path d="M193.9 130.23a7.75 7.75 0 0 0-5.06 2C185.29 116.82 165.4 105 141.41 105a69.56 69.56 0 0 0-9.23.62c17.91-9.59 34.79-3.3 47.31-1.16 16.69 2.85 21.51 25.54 14.41 25.77z" fill="#acd157"></path><path d="M114.07 121.17s3.49-4.76 9.51 3.78 12.39 2.16 16.29 3.6 2.47 9.45 10.28 10.07 9.86-7.6 16.22-5.55 6.17 8.63 12.74 7.4 7.7-10.05 14.79-10.24 2.28-22.93-14.41-25.79-41.1-13.05-65.42 16.73z" fill="none" stroke-width="4" stroke-linecap="round" stroke-linejoin="round" stroke="#404041"></path><path d="M188.16 96.59c-6.07-5.48-16.66-9.12-28.74-9.12s-22.67 3.64-28.74 9.12h-5.4v10.62c0 10.91 15.28 19.75 34.14 19.75s34.14-8.84 34.14-19.75V96.59z" fill="#9f6f53" stroke-width="4" stroke-linecap="round" stroke-linejoin="round" stroke="#404041"></path><ellipse cx="159.42" cy="96.59" rx="34.14" ry="19.74" fill="#998267" stroke="#7c5039" stroke-width="4" stroke-linecap="round" stroke-linejoin="round"></ellipse><path d="M193.56 96.59c0-10.91-15.29-19.75-34.14-19.75s-34.14 8.84-34.14 19.75h0v10.62c0 10.91 15.28 19.75 34.14 19.75s34.14-8.84 34.14-19.75V96.59z" fill="none" stroke-width="4" stroke-linecap="round" stroke-linejoin="round" stroke="#404041"></path><path fill="#faaf40" stroke-width="4" stroke-linecap="round" stroke-linejoin="round" stroke="#404041" d="m113.36 84.5 46.06-23.66 45.71 23.66-45.71 32.62-46.06-32.62z"></path><path d="M193.56 77.8c0 11.41-15.29 20.65-34.14 20.65s-34.14-9.24-34.14-20.65S140.56 52 159.42 52s34.14 14.4 34.14 25.8z" fill="#d1ad78" stroke-width="4" stroke-linecap="round" stroke-linejoin="round" stroke="#404041"></path><path d="M193.55 77.8c0 11.4-15.27 20.66-34.13 20.66s-34.13-9.26-34.13-20.66a17.07 17.07 0 0 1 2.1-7.79c4.82 7.87 17.34 13.49 32 13.49s27.21-5.62 32-13.49a17 17 0 0 1 2.16 7.79z" fill="#b58e5b"></path><path d="M193.56 77.8c0 11.41-15.29 20.65-34.14 20.65s-34.14-9.24-34.14-20.65S140.56 52 159.42 52s34.14 14.4 34.14 25.8z" fill="none" stroke-width="4" stroke-linecap="round" stroke-linejoin="round" stroke="#404041"></path></g></svg>