<svg xmlns="http://www.w3.org/2000/svg" version="1.1" xmlns:xlink="http://www.w3.org/1999/xlink" xmlns:svgjs="http://svgjs.com/svgjs" width="1024" height="560" preserveAspectRatio="none" viewBox="0 0 1024 560">
    <g mask="url(&quot;#SvgjsMask1022&quot;)" fill="none">
        <circle r="7.655" cx="742.975" cy="449.255" filter="url(#SvgjsFilter1023)" fill="rgba(246, 250, 255, 1)"></circle>
        <circle r="8.19" cx="483.35" cy="70.86" filter="url(#SvgjsFilter1023)" fill="rgba(246, 250, 255, 1)"></circle>
        <circle r="4.91" cx="909.0799999999999" cy="37.16" filter="url(#SvgjsFilter1023)" fill="rgba(246, 250, 255, 1)"></circle>
        <circle r="6.63" cx="964.66" cy="377.8" filter="url(#SvgjsFilter1023)" fill="rgba(246, 250, 255, 1)"></circle>
        <circle r="7.34" cx="785.01" cy="234.32" filter="url(#SvgjsFilter1023)" fill="rgba(246, 250, 255, 1)"></circle>
        <circle r="9.135" cx="31.805" cy="396.775" filter="url(#SvgjsFilter1023)" fill="rgba(246, 250, 255, 1)"></circle>
        <circle r="8.67" cx="154.07999999999998" cy="272.32" filter="url(#SvgjsFilter1023)" fill="rgba(246, 250, 255, 1)"></circle>
        <circle r="6.065" cx="307.325" cy="84.755" filter="url(#SvgjsFilter1023)" fill="rgba(246, 250, 255, 1)"></circle>
        <circle r="7.19" cx="830.6400000000001" cy="409.21999999999997" filter="url(#SvgjsFilter1023)" fill="rgba(246, 250, 255, 1)"></circle>
        <circle r="6.98" cx="289.32" cy="388.45000000000005" filter="url(#SvgjsFilter1023)" fill="rgba(246, 250, 255, 1)"></circle>
        <circle r="7.805" cx="246.975" cy="270.195" filter="url(#SvgjsFilter1023)" fill="rgba(246, 250, 255, 1)"></circle>
        <circle r="8.285" cx="10.505" cy="501.75500000000005" filter="url(#SvgjsFilter1023)" fill="rgba(246, 250, 255, 1)"></circle>
        <circle r="5.73" cx="473.73" cy="72.87" filter="url(#SvgjsFilter1023)" fill="rgba(246, 250, 255, 1)"></circle>
        <circle r="4.69" cx="531.0200000000001" cy="222.87" filter="url(#SvgjsFilter1023)" fill="rgba(246, 250, 255, 1)"></circle>
        <circle r="5.725" cx="279.26500000000004" cy="232.405" filter="url(#SvgjsFilter1023)" fill="rgba(246, 250, 255, 1)"></circle>
        <circle r="6.85" cx="633.3100000000001" cy="346.91" filter="url(#SvgjsFilter1023)" fill="rgba(246, 250, 255, 1)"></circle>
        <circle r="8.5" cx="390.1" cy="420.35" filter="url(#SvgjsFilter1023)" fill="rgba(246, 250, 255, 1)"></circle>
        <circle r="7.365" cx="1016.1850000000001" cy="166.41500000000002" filter="url(#SvgjsFilter1023)" fill="rgba(246, 250, 255, 1)"></circle>
        <circle r="9.12" cx="345.35" cy="477.22" filter="url(#SvgjsFilter1023)" fill="rgba(246, 250, 255, 1)"></circle>
        <circle r="8.975" cx="253.64499999999998" cy="441.40500000000003" filter="url(#SvgjsFilter1023)" fill="rgba(246, 250, 255, 1)"></circle>
        <path d="M301.9 242L287.2 207.4 290.8 197.6 313.7 194.2 320.5 202.4 315.9 239.9C316 240.4 316 240.4 316 240.8 316.2 241.7 316.7 242.5 318.2 242.8 319.5 242.6 320.3 242 320.6 240.6L324.5 207.8 334.7 220.6 333.1 235.1C333.1 235.1 333.2 235.5 333.2 235.5 333.3 236.4 333.9 237.2 335.3 237.5 336.3 237.8 337.5 236.7 337.8 235.3L339.1 225.9 346.5 235.4C347.1 236.2 348.5 236.5 349.8 235.8S350.8 233.4 350.2 232.1L342.8 223 352.2 224C353.6 224.2 354.8 223.1 355.1 221.7 354.9 220.8 354.3 219.5 352.9 219.3L338.4 217.7 328.1 204.5 360.9 208.4C362.3 208.7 363.6 207.6 363.9 206.6 363.7 205.2 363 204 361.6 203.7L324.2 199.6 317.4 190.9 325.8 169.9 336.6 168.3 367 190.5C368.1 191.3 369.4 191.1 370.2 190S370.7 187.6 369.7 186.9L342.9 167.4 359.6 164.9 370.9 173.3C372 174.1 373.3 173.9 374.5 172.8S375.1 170.4 374.1 169.7L365.9 164 378 162.2C379.4 162 380.1 160.5 379.9 159.1 379.7 157.8 378.6 157 377.3 157.2L365.1 159 370.9 151.3C372.1 150.2 371.9 148.8 370.4 148.1 369.4 147.3 368 147.5 367.3 148.6L358.8 160 342.2 162.4 362.2 136C363 135 362.7 133.2 361.7 132.4S359.3 131.8 358.5 132.9L335.9 163.3 325.1 164.9 310.9 146.8 314.9 137 349.6 122.2C350.8 121.6 351.1 120.1 350.9 118.8 350.2 117.5 348.8 117.3 347.5 117.5L317.2 130.7 323.3 115.5 336.7 109.9C338 109.2 338.2 107.8 338 106.4 337.4 105.6 336 104.9 334.7 105.6L326 109.1 330.3 97.9C330.6 96.9 330 95.7 329 94.9 327.5 94.6 326.3 95.3 325.9 96.3L321.6 107.5 317.5 98.4C316.9 97.6 315.5 96.9 314.6 97.5 313.3 97.7 313 98.6 313.2 100 313.2 100 313.2 100.4 313.2 100.4L318.9 113.9 312.8 129 299.6 98.8C299 97.5 297.9 96.7 296.7 97.4 295.4 98 295.1 99 295.2 99.9 295.3 100.3 295.3 100.3 295.3 100.3L310.6 135.3 306.5 145.1 283.5 148.5 277.2 140.3 281.3 102.4C281.6 101.4 280.5 100.2 279.6 99.9 278.1 99.7 276.9 100.8 276.7 102.2L272.8 134.9 262.6 122.2 264.1 107.7C264.4 106.3 263.7 105 262.4 105.2 261 104.9 259.8 106 259.4 107L258.6 116.8 251.2 107.3C250.2 106.5 248.8 106.3 247.5 106.9 247.1 107.5 246.8 108.4 246.9 109.3 247 109.8 247 109.8 247.5 110.2L254.9 119.7 245.1 118.8C243.7 118.5 242.9 119.6 242.6 120.6 242.7 121 242.7 121 242.7 121.5 242.9 122.4 243.4 123.2 244.4 123.5L258.9 125 269.1 137.8 236.3 133.9C234.9 134.1 233.6 134.8 233.8 136.1 233.5 136.6 233.5 136.6 233.5 137.1 233.7 138 234.7 138.7 235.7 139.1L273.5 143.1 279.8 151.4 271.5 172.9 261.1 174.4 230.6 151.8C229.6 151 227.8 151.3 227 152.3S226.5 155.1 227.6 155.9L254.4 175.4 238.2 177.8 226.3 169.4C225.3 168.6 224 168.8 223.2 169.9 222.4 170.9 222.6 172.3 223.7 173L231.4 178.8 219.3 180.6C218.4 180.7 217.1 181.8 217.3 183.2 217.5 184.5 219.1 185.7 220 185.5L232.1 183.7 226.4 191.5C226 192 225.6 192.5 225.7 193 225.8 193.9 226.3 194.3 226.9 194.6 227.9 195.4 229.2 195.2 230 194.2L238.9 182.7 255.1 180.3 235.1 206.8C234.7 207.3 234.8 207.7 234.9 208.6 235 209.1 235 209.5 235.6 209.9 236.6 210.7 238.4 210.4 239.2 209.4L261.9 179.3 272.2 177.8 286.3 195.5 282.8 205.7 247.7 220.5C246.9 221.1 246.1 222.2 246.2 223.1 246.3 223.5 246.3 223.5 246.8 223.4 247 224.8 248.4 225.5 249.7 224.8L280 211.6 274 227.2 260.6 232.9C259.7 233.5 259.4 234.5 259.6 235.4 259.6 235.4 259.6 235.8 259.6 235.8 259.8 237.2 261.3 237.9 262.6 237.2L271.6 233.1 267.3 244.3C266.9 244.8 267 245.3 267.1 245.7 267.2 246.6 267.8 247.5 268.2 247.4 269.7 248.1 271 247.5 271.8 246.4L276.1 235.2 279.7 243.9C280.3 245.2 281.8 245.9 283.1 245.2 283.9 244.6 284.6 243.1 284.1 242.3L278.4 228.9 284.4 213.7 297.6 244C298.3 245.3 299.7 245.5 301.1 245.3 301.9 244.7 302.6 243.3 301.9 242ZM310.3 189.7L292.8 192.3 290.1 192.7 288.4 190.6 277.6 177 275.9 174.5 276.9 172.1 283.2 155.9 284.3 153.5 287 153.1 304.5 150.5 307.2 150.1 308.9 152.2 319.7 165.7 321.3 167.8 320.4 170.7 314 186.8 313 189.3 310.3 189.7Z" fill="rgba(246, 250, 255, 1)"></path>
        <path d="M152.7 321.8L163.9 325.8 158.7 330.7C158.1 331.2 158 332.2 158.5 333.2 159.3 333.7 160.4 333.8 160.9 333L167.7 327.1 176.6 329.7 162.5 342.1C162 342.9 161.8 344 162.3 344.6 163.2 345.4 164.3 345.6 164.8 344.8L180.4 331 193.9 335.5 180.5 344.9 196.5 348.2 186 357.8 166.2 351.4C166.1 351.1 165.8 351.2 165.4 351.2 164.8 351.4 164.2 351.9 164 352.6 163.8 353.3 164.3 354.3 165.1 354.8L183.1 360.5 176 366.5 167.4 363.7C167 363.5 166.6 363.6 166.3 363.6 166 363.7 165.4 364.2 165.2 364.9 165 365.6 165.5 366.6 166.3 366.8L173 369.2 164.3 377.3C163.4 377.8 163.6 378.8 164.1 379.8 164.6 380.4 165.7 380.5 166.5 379.6L175.4 371.8 176.8 378.9C177 379.9 178.2 380.3 178.8 380.2 179.8 380 180.4 379.2 180.2 378.2L178.3 369.1 185.4 363.1 189.2 381.2C189.4 382.2 190.2 382.7 191.2 382.5 191.9 382.3 192.7 381.5 192.5 380.4L188.3 360.4 198.9 350.9 200.5 366.9 211.2 354.9 214.2 368.9 198.9 382.6C198 383.5 198.2 384.5 198.7 385.1 199.2 385.7 200.3 385.8 201.2 385.3L214.9 372.6 216.8 381.6 210.1 387.9C209.2 388.5 209.1 389.5 209.9 390.4 210.4 391 211.5 391.1 212.3 390.2L217.7 385.6 220.1 397.3C220.3 398.3 221.1 398.9 222.1 398.6S223.7 397.6 223.4 396.6L221 384.9 227.7 387C228.9 387.5 229.8 386.9 230 386.2 230.4 385 229.9 384.1 228.8 384L220.2 380.9 218.3 371.9 235.9 378C237 378.1 237.9 377.5 238.1 376.8 238.6 375.7 238 374.7 237 374.6L217.5 368.2 214.5 354.2 229.2 360.9 224.2 345.5 237.7 350 241.9 370.1C242.2 371.1 243.3 371.5 244 371.4 245 371.2 245.5 370.4 245.3 369.4L241.4 351 250.4 354 252.3 363C252.5 364 253.3 364.5 254.3 364.3 255 364.2 255.9 363.3 255.7 362.3L254.2 355.3 265.4 358.9C266.5 359.3 267.5 358.8 267.6 357.7 267.8 357 267.6 356 266.5 355.9L255.2 351.9 260.5 347C261.1 346.5 261.2 345.5 260.7 344.9 260.2 344.3 259.5 344.1 259.2 344.1 258.8 344.2 258.5 344.3 258.2 344.7L251.5 350.6 242.5 348 256.7 335.6C257.2 334.8 257.3 333.7 256.9 333.1 256.4 332.5 255.6 332.3 255 332.5 254.6 332.5 254.6 332.5 254.4 332.9L238.8 346.7 225.3 342.2 238.6 332.8 222.6 329.5 233.2 320 253 326.3C253.7 326.5 254.7 326.2 255.2 325.1 255.4 324.4 254.8 323.4 254 322.9L236.1 317.2 243.2 311.2 251.8 314C252.6 314.5 253.5 313.9 254 312.8 254.2 312.1 253.6 311.1 252.8 310.6L246.1 308.5 254.9 300.4C255.8 299.9 255.6 298.9 255.1 297.9 254.6 297.7 253.9 297.5 253.6 297.5 253.2 297.6 252.9 297.7 252.6 298.1L243.8 305.9 242.3 298.8C242.1 297.8 241 297.4 240.3 297.5L240.3 297.5C239.3 297.7 238.8 298.5 239 299.5L240.9 308.6 233.8 314.6 230 296.6C229.8 295.5 229 295 228 295.2S226.5 296.2 226.7 297.3L230.9 317.3 220.3 326.8 218.7 310.8 208 322.8 205 308.8 220.3 295.1C221.1 294.2 220.9 293.2 220.5 292.6 220 292 218.9 291.9 218 292.4L204.2 304.8 202.4 296.1 209.1 289.8C210 289.2 210.1 288.2 209.2 287.3 208.8 286.7 207.7 286.6 206.8 287.1L201.5 292.1 199.1 280.4C198.8 279.4 198 278.8 197 279.1S195.5 280.1 195.7 281.1L198.2 292.8 191.5 290.7C191.1 290.4 190.7 290.5 190.4 290.6 189.7 290.7 189.5 291.1 189.2 291.5 188.7 292.7 189.3 293.6 190.3 293.7L199 296.8 200.9 305.8 183.2 299.7C182.9 299.8 182.6 299.9 182.2 299.9 181.6 300.1 181.3 300.5 181 300.9 180.6 302 181.1 303 182.2 303.1L201.7 309.5 204.6 323.5 190 316.8 194.9 332.2 181.4 327.7 177.2 307.6C177 306.6 175.9 306.2 175.2 306.3 174.2 306.5 173.7 307.3 173.9 308.3L177.7 326.4 168.7 323.7 166.8 314.7C166.6 313.7 165.8 313.2 164.8 313.4S163.3 314.4 163.5 315.4L165 322.4 153.8 318.8C153.4 318.6 153 318.6 152.7 318.7 152.4 318.8 151.8 319.2 151.6 320 151.4 320.7 151.6 321.7 152.7 321.8ZM195.4 323L207.4 328.5 216.2 318.6 217.6 331.9 230.3 334.5 219.7 342.3 223.7 354.7 211.8 349.2 203 359.1 201.7 346.1 188.9 343.2 199.5 335.7 195.4 323Z" fill="rgba(246, 250, 255, 1)"></path>
        <path d="M727.2 555.5L727.8 547.5 731.9 550.1C732.3 550.4 733 550.3 733.5 549.7 733.7 549.1 733.6 548.4 733 548.2L728 544.9 728.1 538.7 738.6 545.6C739.2 545.8 739.9 545.7 740.2 545.3 740.6 544.6 740.5 543.9 739.9 543.7L728.3 536 728.9 526.6 737.2 533.5 736.6 522.7 744.5 527.8 743.9 541.6C743.7 541.7 743.8 541.9 743.9 542.1 744.1 542.6 744.5 542.9 745 542.9 745.6 542.8 746.1 542.3 746.3 541.7L746.8 529.2 751.9 532.7 751.6 538.7C751.5 539 751.6 539.2 751.7 539.4 751.8 539.7 752.3 540 752.8 540 753.3 539.9 753.8 539.4 753.8 538.9L754.1 534.1 760.9 538.4C761.4 538.9 762 538.6 762.5 538.1 762.8 537.6 762.7 536.9 762 536.5L755.5 532.2 759.7 530C760.3 529.7 760.4 528.9 760.2 528.5 759.9 527.9 759.3 527.7 758.7 528L753.2 530.8 748.1 527.3 759.1 521.7C759.7 521.4 759.9 520.8 759.6 520.2 759.3 519.8 758.6 519.4 758 519.7L745.8 525.8 737.9 520.7 747.9 516.9 738.3 512.1 746.9 507.7 758.3 515.2C759 515.6 759.6 515.3 759.9 514.9 760.2 514.5 760.1 513.7 759.6 513.2L749.1 506.6 754.6 503.8 759.8 507C760.3 507.5 761 507.4 761.4 506.7 761.7 506.3 761.6 505.6 760.9 505.2L757 502.6 764.1 499C764.7 498.7 764.9 498 764.6 497.4S763.7 496.6 763.1 496.9L756 500.5 756.1 495.9C756.2 495 755.7 494.5 755.2 494.5 754.4 494.4 753.9 495 754 495.7L753.5 501.8 748.1 504.6 748.9 492.1C748.8 491.4 748.3 490.9 747.8 490.9 746.9 490.8 746.4 491.3 746.5 492.1L745.8 505.7 737.3 510 739.1 499.4 730 505.3 730.6 495.8 742.8 489.6C743.4 489.3 743.5 488.5 743.3 488.1 743 487.5 742.3 487.3 741.7 487.6L730.6 493.3 730.9 487 736.4 484.2C737 483.9 737.2 483.3 736.9 482.7 736.7 482.3 736 481.8 735.4 482.2L731.1 484.3 731.5 476.5C731.6 475.7 731.1 475.2 730.4 475.3 729.8 475.3 729.2 475.6 729.3 476.3L728.8 484.2 724.7 481.7C724.3 481.4 723.6 481.5 723.3 481.9 723 482.3 723 482.8 723.1 483.1 723.2 483.3 723.3 483.5 723.6 483.6L728.6 486.9 728.4 493.1 718 486.1C717.4 485.9 716.7 486 716.4 486.5 716.1 486.9 716.1 487.4 716.3 487.8 716.4 488 716.4 488 716.7 488.1L728.3 495.7 727.7 505.2 719.3 498.2 720 509.1 712 504 712.6 490.1C712.6 489.6 712.3 489 711.5 488.9 711 488.9 710.5 489.4 710.3 490.1L709.8 502.6 704.7 499 704.9 493C705.1 492.4 704.6 491.9 703.8 491.8 703.3 491.8 702.8 492.3 702.6 493L702.4 497.6 695.7 493.4C695.2 492.9 694.5 493.2 694 493.7 693.9 494 693.9 494.5 694 494.7 694.2 494.9 694.3 495.1 694.6 495.2L701.1 499.6 696.8 501.7C696.2 502.1 696.1 502.9 696.3 503.3L696.3 503.3C696.7 503.9 697.3 504.1 697.9 503.8L703.4 501 708.5 504.5 697.5 510.1C696.9 510.4 696.7 511 697 511.6S697.9 512.4 698.5 512.1L710.7 505.9 718.7 511.1 708.6 514.9 718.2 519.7 709.7 524.1 698.3 516.6C697.5 516.2 696.9 516.5 696.6 516.9 696.3 517.3 696.4 518 697 518.5L707.3 525.3 702 528 696.8 524.7C696.3 524.2 695.6 524.3 695.2 525.1 694.9 525.5 695 526.2 695.5 526.7L699.6 529.2 692.5 532.8C691.9 533.1 691.7 533.7 692 534.3S692.9 535.2 693.5 534.8L700.6 531.2 700.4 535.9C700.3 536.2 700.4 536.4 700.5 536.6 700.7 537 701 537.1 701.3 537.2 702.2 537.3 702.7 536.8 702.6 536.1L703 530 708.5 527.2 707.7 539.6C707.8 539.8 707.9 540 708 540.2 708.2 540.6 708.5 540.7 708.8 540.8 709.6 540.9 710.1 540.4 710 539.7L710.7 526.1 719.3 521.7 717.5 532.3 726.5 526.5 726 536 713.8 542.1C713.2 542.4 713.1 543.3 713.3 543.7 713.6 544.3 714.2 544.5 714.8 544.2L725.8 538.6 725.6 544.8 720.1 547.6C719.5 547.9 719.3 548.5 719.6 549.1S720.6 549.9 721.2 549.6L725.4 547.5 725.1 555.3C725 555.6 725.1 555.8 725.2 556 725.3 556.2 725.7 556.5 726.2 556.5 726.7 556.5 727.3 556.2 727.2 555.5ZM720.5 527.7L722 519.1 714.1 515.2 722.5 512 721.9 503.3 728.7 508.8 736 504 734.6 512.7 742.4 516.6 734.3 519.7 734.7 528.5 728 522.9 720.5 527.7Z" fill="rgba(246, 250, 255, 1)"></path>
        <path d="M1025.3 433.7L1010 429.2 1016.7 422.3C1017.5 421.6 1017.6 420.2 1016.8 419 1015.7 418.3 1014.2 418.2 1013.6 419.3L1004.9 427.7 992.9 424.7 1010.9 407.3C1011.6 406.2 1011.7 404.8 1011 404 1009.8 402.9 1008.4 402.8 1007.7 403.9L987.8 423.2 969.5 418 986.7 404.7 965.2 401.3 978.7 387.9 1005.4 395.1C1005.5 395.5 1006 395.4 1006.4 395.3 1007.3 395.1 1008.1 394.4 1008.3 393.4 1008.5 392.4 1007.7 391.2 1006.6 390.6L982.4 384.2 991.5 375.7 1003.1 378.8C1003.6 379.1 1004.1 379 1004.5 378.9 1005 378.8 1005.7 378.1 1005.9 377.1 1006.1 376.1 1005.4 374.9 1004.4 374.7L995.2 371.9 1006.3 360.5C1007.5 359.8 1007.2 358.4 1006.4 357.2 1005.8 356.5 1004.3 356.4 1003.2 357.6L991.9 368.5 989.5 359.3C989.2 357.9 987.7 357.4 986.8 357.6 985.5 358 984.8 359.1 985.1 360.4L988.2 372.3 979.1 380.8 973 357C972.6 355.7 971.5 355 970.2 355.3 969.3 355.6 968.2 356.8 968.6 358.1L975.4 384.5 962 397.9 958.8 376.6 945.3 393.3 940.5 374.8 959.9 355.7C961 354.4 960.7 353.1 960 352.3 959.3 351.6 957.9 351.5 956.7 352.3L939.2 370 936.1 358.1 944.6 349.3C945.9 348.5 946 347.1 944.7 346 944.1 345.2 942.6 345.1 941.5 346.3L934.7 352.8 930.7 337.4C930.4 336 929.3 335.4 928 335.7S926 337.2 926.3 338.5L930.3 353.9 921.3 351.6C919.7 351 918.5 351.8 918.3 352.8 917.8 354.4 918.5 355.6 920 355.7L931.7 359.2 934.8 371.1 910.9 364.1C909.5 364 908.2 364.8 908 365.8 907.5 367.4 908.3 368.6 909.7 368.7L936 376 940.8 394.5 920.9 386.5 928.5 406.6 910.2 401.5 903.4 375C903 373.7 901.5 373.2 900.6 373.4 899.3 373.7 898.6 374.8 899 376.2L905.2 400.4 893.1 397 890 385.1C889.6 383.8 888.5 383.1 887.2 383.4 886.3 383.7 885.2 384.9 885.6 386.2L888 395.5 872.8 391.4C871.3 390.9 870.1 391.7 870 393.1 869.8 394.1 870.1 395.4 871.5 395.5L886.8 400 880.1 406.9C879.4 407.6 879.3 409 879.9 409.8 880.6 410.6 881.6 410.8 882 410.6 882.5 410.5 882.9 410.4 883.3 409.9L891.9 401.5 904 404.5 885.9 421.9C885.2 423 885.1 424.4 885.8 425.2 886.5 426 887.5 426.2 888.4 425.9 888.8 425.8 888.8 425.8 889.1 425.3L909 406 927.3 411.1 910.1 424.5 931.6 427.9 918.2 441.2 891.4 434.1C890.4 433.9 889.1 434.2 888.6 435.8 888.3 436.8 889.1 438 890.2 438.6L914.5 445 905.4 453.5 893.8 450.4C892.7 449.7 891.4 450.5 890.9 452.1 890.7 453.1 891.5 454.3 892.6 454.9L901.7 457.3 890.5 468.6C889.3 469.4 889.6 470.7 890.4 471.9 891 472.3 892 472.5 892.4 472.4 892.9 472.3 893.3 472.1 893.6 471.6L904.9 460.7 907.3 469.9C907.6 471.2 909.2 471.8 910.1 471.6L910.1 471.6C911.4 471.2 912 470.1 911.7 468.8L908.6 456.9 917.7 448.4 923.9 472.2C924.2 473.5 925.3 474.2 926.6 473.8S928.6 472.4 928.3 471.1L921.4 444.6 934.9 431.3 938 452.5 951.6 435.9 956.4 454.4 936.9 473.5C935.8 474.8 936.2 476.1 936.8 476.8 937.5 477.6 938.9 477.7 940.1 476.9L957.8 459.7 960.7 471.1 952.2 479.9C951 480.7 950.9 482.1 952.1 483.2 952.8 484 954.2 484.1 955.4 483.3L962.1 476.4 966.1 491.8C966.4 493.1 967.6 493.8 968.9 493.4S970.8 492 970.5 490.7L966.5 475.3 975.6 477.6C976.1 477.9 976.6 477.8 977 477.7 977.9 477.5 978.2 476.9 978.5 476.4 979.1 474.8 978.3 473.6 976.9 473.5L965.1 470 962 458.1 986 465C986.4 464.9 986.8 464.8 987.3 464.7 988.2 464.5 988.5 463.9 988.8 463.4 989.3 461.8 988.6 460.6 987.1 460.5L960.8 453.2 956 434.7 975.9 442.7 968.4 422.6 986.6 427.7 993.5 454.2C993.8 455.5 995.4 456 996.2 455.8 997.6 455.4 998.2 454.3 997.9 453L991.7 429.2 1003.8 432.2 1006.9 444.1C1007.2 445.4 1008.3 446.1 1009.6 445.7S1011.6 444.3 1011.3 443L1008.9 433.7 1024 437.8C1024.6 438.1 1025 438 1025.5 437.9 1025.9 437.8 1026.7 437.1 1026.9 436.1 1027.1 435.1 1026.7 433.8 1025.3 433.7ZM968.2 434.8L952 428.2 940.9 441.9 938.2 424.3 921.1 421.7 934.7 410.6 928.6 394.3 944.9 400.9 955.9 387.3 958.5 404.5 975.7 407.5 962 418.1 968.2 434.8Z" fill="rgba(246, 250, 255, 1)"></path>
        <path d="M643.8 511.4L621.3 526.8 611.6 524.8 619.2 519.6C620.1 519.3 620.1 518.2 619.8 517.2 619.2 516.7 618 516.4 617.5 516.9L606.9 523.8 597.3 522.1 603.8 514.8 616.5 514C616.5 514 616.8 513.9 616.8 513.9 617.5 513.7 617.9 512.8 618 512 617.7 511.1 617.1 510.5 616 510.6L606.9 511.2 613.4 503.9 640.4 501.7C640.4 501.7 640.9 502 640.9 502 641.5 501.7 641.9 500.9 642 500.1 642 499 641 498.3 640.1 498.6L616.4 500.3 624.1 491.1 634.7 490.4C634.7 490.4 634.7 490.4 635 490.3 635.6 490 636.2 489.5 636.3 488.7 635.9 487.8 635.3 486.9 634.2 486.9L627.2 487.5 632.8 480.9C633.7 480.2 633.4 479.3 632.8 478.7 632.2 477.9 631.1 477.9 630.3 478.9L624.6 485.2 624.4 478.4C624.1 477.4 623.4 476.6 622.4 476.9 621.4 476.9 620.8 477.5 620.8 478.5L621.6 489.1 613.8 498 612 474C612.1 473.3 611.2 472.5 610.1 472.5 609.4 472.7 608.6 473.4 608.6 474.5L610.7 501.6 604.2 508.9 603.6 499.7C603.6 498.6 602.7 498.2 601.6 498.2 600.9 498.1 600.1 499.1 600 499.8L601.2 512.5 594.8 520.1 591.5 510.7 597 499.4C597.4 498.6 597.1 497.6 596.2 497.2 595.7 496.7 594.4 497.1 594 498L590 506.2 586.7 496.9 598.8 472.4C599.3 471.6 598.9 470.6 598.1 470.2 597.2 469.8 596.2 470.1 595.8 471L585.2 492.4 581.4 481.4 586 471.8C586.4 471 586.1 470 585.2 469.6 584.3 469.2 583.4 469.5 583 470.4L579.7 476.5 576.9 468.5C576.6 467.5 575.7 467.1 574.7 467.4 573.7 467.8 573.3 468.6 573.7 469.6L576.5 477.7 570.4 474.7C569.5 474.3 568.5 474.6 568.1 475.5S568 477.3 568.9 477.8L578 482.2 581.9 493.5 560.7 483.1C559.8 482.7 558.8 483.1 558.4 483.9 558 484.8 558.3 485.8 559.2 486.2L583.5 498 586.7 507.3 578.5 503.3C577.6 502.9 576.6 503.2 576.2 504.1 575.8 505 576.1 506 577 506.4L588.3 511.9 591.4 520.9 582.1 519.1 574.9 508.6C574.3 508 573.1 507.7 572.6 508.3 571.7 508.9 571.7 509.7 572 510.6L577.1 518.2 567.8 516.4 552.5 493.9C551.8 493.1 551.1 493 550.1 493.3 549.2 494 549.2 495 549.5 495.7L562.9 515.6 551.2 513.2 545.4 504.7C545 503.7 543.9 503.7 543 504.1 542.4 504.6 542.1 505.8 542.8 506.7L546.5 512.2 538.1 510.8C537.2 510.4 536.4 511.1 536.1 512.3 536 513 536.6 513.9 537.4 514L545.9 515.7 540 519.5C539.2 520.2 539.2 521.3 539.7 521.8 540.1 522.8 540.8 522.9 541.5 522.7 541.8 522.5 541.8 522.5 542.1 522.4L550.6 516.6 562.3 519.1 542.7 532.4C541.7 532.7 541.7 533.8 542 534.7 542.6 535.3 543.3 535.4 544 535.2 544.3 535 544.3 535 544.3 535L567.2 519.9 576.5 521.7 568.9 526.9C568.1 527.5 568 528.3 568.3 529.3 568.9 529.8 569.7 530.2 570.4 530 570.7 529.9 570.7 529.9 571 529.8L581.5 522.5 590.8 524.3 584.6 531.5 572 532.7C570.9 532.7 570.2 533.7 570.1 534.4 570.4 535.4 571.1 536.2 572.1 535.9L581.2 535.3 575.2 542.8 547.7 544.7C546.9 544.6 546.2 545.6 546.1 546.4 546.4 547.3 547.1 548.2 548.1 548.2L571.8 546.5 564 555.3 553.7 556C552.7 556 551.9 557 552.2 557.9 552.1 558.7 552.8 559.6 553.9 559.5L560.9 558.9 555.3 565.6C554.7 566.1 554.7 567.2 555.4 568.1 555.8 568.3 556.6 568.4 557.2 568.1 557.2 568.1 557.5 568 557.9 567.9L563.5 561.3 564.1 568.3C564 569 565 569.8 565.8 569.9 566.1 569.8 566.1 569.8 566.1 569.8 567.1 569.4 567.5 568.6 567.3 567.9L566.6 557.7 574.3 548.5 576.1 572.4C576.4 573.4 576.9 573.9 578 573.9 578 573.9 578.3 573.8 578.3 573.8 579 573.6 579.5 573.1 579.5 572L577.7 544.8 583.9 537.6 584.5 546.8C584.8 547.7 585.5 548.6 586.5 548.3 586.6 548.6 586.9 548.5 586.9 548.5 587.5 548.2 588 547.4 588.1 546.6L586.9 534 593.4 526.7 596.6 535.7 591.1 547C590.7 547.9 591.1 549.2 592 549.6 592.7 549.7 593.7 549.4 594.2 548.8L598.1 540.2 601.4 549.6 589.6 573.9C589.1 574.8 589.5 575.7 590.4 576.2 591.2 576.6 592.2 576.3 592.6 575.4L602.9 554.1 606.8 565.4 602.4 574.5C602 575.4 602.3 576.3 603.2 576.8S605 576.9 605.5 576L608.4 569.9 611.2 578C611.5 578.9 612.4 579.4 613.4 579 614.3 578.7 614.8 577.8 614.4 576.9L611.6 568.8 618 571.6C618.5 571.8 618.9 572.1 619.2 571.9 619.6 571.8 620.1 571.3 620.3 570.8 620.7 570 620.4 569 619.5 568.6L610.1 564.3 606.2 553 627.8 563.2C628.2 563.4 628.6 563.6 629 563.5 629.3 563.4 629.8 562.9 630 562.4 630.4 561.6 630.1 560.6 629.2 560.2L604.6 548.5 601.4 539.1 609.7 543.4C610.2 543.7 610.8 543.4 611.1 543.3 611.4 543.2 611.8 543.1 612 542.7 612.4 541.8 612 540.5 611.2 540.4L599.8 534.6 596.7 525.6 606.3 527.3 613.2 537.9C613.8 538.4 614.6 538.9 615.3 538.6 615.6 538.5 615.6 538.5 615.5 538.2 616.5 537.9 616.8 536.7 616.1 535.8L610.9 528.2 620.6 529.9 635.7 552.9C636.3 553.4 637 553.5 637.7 553.3 638 553.2 638 553.2 638 553.2 638.9 552.5 639.3 551.6 638.6 550.8L625.2 530.9 636.9 533.3 642.7 541.8C643.4 542.6 644.1 542.7 644.8 542.5 644.8 542.5 645.1 542.4 645.1 542.4 646 541.7 646 540.6 645.7 540L641.6 534.2 650.1 536C650.4 535.8 650.8 535.7 651.1 535.6 651.4 535.5 651.9 535 652.1 534.5 652.1 533.4 651.8 532.5 650.7 532.5L642.2 530.8 648.1 526.9C648.9 526.3 648.9 525.2 648.7 524.5 648 523.7 646.9 523.7 646 524L637.5 529.8 625.9 527.7 645.5 514.4C646.4 513.8 646.7 512.6 646.2 512 645.5 511.2 644.6 510.8 643.8 511.4Z" fill="rgba(246, 250, 255, 1)"></path>
        <path d="M954.6 88.2L976.3 97.4 984 117 963.2 113.9 949.3 94.8C949.3 94.8 949 94.7 949 94.7 948.6 94.3 947.8 94.4 947.2 94.7 946.5 95.2 946.4 96.2 947 96.7L959.3 113.3 949.2 111.9 943.7 104.6C943.7 104.6 943.5 104.4 943.5 104.4 943 104.1 942.2 104.2 941.6 104.4 940.9 104.9 940.8 105.9 941.5 106.5L945.1 111.5 937.7 110.3C937.1 110.2 936.1 110.9 936 111.6 935.7 112.4 936.6 113.1 937.2 113.2L944.6 114.4 939.6 118C938.8 118.5 938.7 119.5 939.4 120.1 939.9 120.8 940.9 120.9 941.4 120.2L948.7 114.7 958.6 116.4 942 128.7C941.3 129.2 941.2 130.2 941.8 130.7 942.3 131.5 943.4 131.6 943.9 130.9L962.9 117 983.7 120 970.5 136.7 946.9 139.5C946.1 139.5 945.6 140.2 945.7 141 945.7 141.8 946.4 142.3 947.2 142.2L968 139.9 961.6 147.9 952.8 148.9C952 149 951.5 149.7 951.6 150.5 951.7 151.2 952.4 151.8 953.2 151.7L959.2 151 954.2 157.2C953.4 157.7 953.8 158.7 954.4 159.2 955.1 159.8 955.9 159.7 956.4 159L961 153.2 961.7 159.2C961.8 160 962.5 160.5 963.3 160.4S964.6 159.7 964.5 158.9L963.5 150.1 969.9 142.1 972.3 162.9C972.4 163.7 973 164.2 973.8 164.1 974.6 164 975.1 163.3 975.1 162.5L972.3 139 985.4 122.5 993.1 142 984 163.1C983.7 164 984.2 164.7 984.9 165.2 985.7 165.6 986.5 165.1 987 164.4L995.2 145.4 998.9 154.9 995.2 163.3C994.9 164.1 995.4 164.9 996 165.4 996.9 165.7 997.6 165.2 998 164.8L1000.4 159 1003.2 166C1003.5 166.6 1004.3 167.3 1005.1 166.8 1005.9 166.3 1006.4 165.6 1005.9 164.9L1003.1 157.9 1008.8 160.3C1009.7 160.6 1010.4 160.1 1010.8 159.6 1010.9 159 1010.8 158.2 1010.4 157.9 1010.4 157.9 1010.1 157.7 1010.1 157.7L1001.8 154 998.1 144.5 1017 152.6C1017.9 153 1018.6 152.5 1019 152 1019.1 151.4 1019 150.6 1018.6 150.2 1018.6 150.2 1018.4 150.1 1018.4 150.1L996.7 140.8 988.9 121.3 1009.7 124.3 1023.7 143.4C1024.2 144.1 1025.2 144.2 1025.7 143.5 1026.5 143.1 1026.6 142 1025.9 141.5L1013.6 124.9 1023.7 126.4 1029.2 133.6C1029.7 134.4 1030.7 134.5 1031.3 133.8 1032 133.3 1032.1 132.3 1031.4 131.8L1027.8 126.7 1035.2 127.9C1035.9 128 1036.8 127.3 1036.9 126.7 1037.1 126 1036.8 125.5 1036.3 125.1 1036.1 124.9 1035.9 124.8 1035.5 124.8L1028.1 123.6 1033.1 120C1033.9 119.5 1034 118.5 1033.3 118 1033.3 118 1033.1 117.8 1033.1 117.8 1032.6 117.4 1031.8 117.5 1031.3 117.8L1024 123.3 1013.9 121.8 1030.5 109.6C1031.3 109.1 1031.4 108.1 1030.7 107.5 1030.7 107.5 1030.5 107.4 1030.5 107.4 1030 107 1029.2 107.1 1028.6 107.4L1009.6 121.3 988.8 118.2 1001.9 101.7 1025.5 99C1026.3 98.9 1026.8 98.3 1026.7 97.5 1026.6 96.7 1025.9 96.1 1025.1 96.2L1004.5 98.4 1010.9 90.4 1019.7 89.4C1020.5 89.3 1021 88.6 1020.9 87.8S1020.2 86.5 1019.4 86.6L1013.4 87.3 1018 81.5C1018.5 80.8 1018.4 80 1017.7 79.5 1017.1 78.9 1016.3 79 1015.7 79.7L1011.1 85.5 1010.5 79.5C1010.4 79.1 1010.4 78.7 1009.9 78.4S1009.1 78 1008.7 78.1C1007.9 78.2 1007.3 78.8 1007.4 79.6L1008.4 88.4 1002.1 96.5 999.7 75.7C999.6 75.3 999.6 74.9 999.2 74.5 998.9 74.3 998.3 74.2 997.9 74.3 997.1 74.4 996.6 75 996.7 75.8L999.4 99.4 986.3 115.9 978.6 96.3 987.8 74.6C988 74 987.9 73.2 987.4 72.8 987.4 72.8 987.2 72.7 987.2 72.7 986.3 72.4 985.6 72.8 985.2 73.3L977.1 92.2 973.4 82.8 977.1 74.4C977.2 73.8 977.1 73 976.7 72.7 976.7 72.7 976.4 72.5 976.4 72.5 975.6 72.2 974.8 72.7 974.5 73.1L972.1 78.9 969.3 71.9C969.1 71.7 969 71.3 968.8 71.1 968.4 70.8 967.7 70.6 967.2 70.9 966.4 71.4 965.9 72.1 966.4 72.8L969.2 79.8 963.4 77.4C962.6 77.1 961.8 77.6 961.5 78 961.2 78.9 961.7 79.6 962.1 80L970.4 83.7 974.2 93.2 955.2 85C954.4 84.7 953.6 85.2 953.3 85.7 953.4 86.9 953.7 87.9 954.6 88.2Z" fill="rgba(246, 250, 255, 1)"></path>
        <path d="M392.3 314.8L385.2 315.5 387 311C387.2 310.6 387 309.9 386.4 309.5 385.8 309.4 385.1 309.6 384.9 310L382.4 315.8 375.7 316.4 381 304.7C381.3 303.9 381.1 303.2 380.4 303.1 379.8 302.7 379.2 302.9 378.9 303.7L373.1 316.7 367.1 317.4 359 306.1 361 301.3 376.1 299.9C376.2 299.7 376.4 299.6 376.6 299.5 376.8 299.3 377 298.9 377.1 298.6 377 297.7 376.5 297.3 375.8 297.5L362.1 298.8 364.8 292.9 371.7 292C371.9 292.2 372.1 292.1 372.2 291.9 372.6 291.7 372.8 291.2 372.8 290.7 372.7 290.2 372.1 289.8 371.5 289.7L365.8 290.4 369.1 283C369.3 282.5 369.1 281.8 368.5 281.4 367.9 281.3 367.2 281.5 367 282L363.9 289 361.1 285.1C360.7 284.6 359.9 284.6 359.5 284.9 359 285.3 358.7 286.1 359.1 286.6L362.7 291.6 360 297.5 352.5 287.2C352.1 286.7 351.4 286.6 350.9 287 350.3 287.4 350.2 288 350.6 288.6L358.9 300 356.8 305.2 342.9 306.6 339.8 302.3 345.7 289.1C346.1 288.5 345.7 287.6 345.1 287.5 344.5 287.1 343.9 287.5 343.5 288.1L338.2 300.1 334.3 294.8 337.1 288.9C337.3 288.4 336.9 287.6 336.5 287.3S335.2 287.4 334.7 288L332.7 292.6 328 286.2C327.6 285.6 326.8 285.7 326.3 286.1 325.9 286.3 325.6 287.1 326 287.6L330.7 294.1 325.6 294.7C325.1 294.8 324.5 295.2 324.5 296 324.6 296.5 325.3 297.1 325.8 297.1L332.3 296.3 336.2 301.6 323.1 303C322.4 303.2 321.9 303.6 321.9 304.4 322 304.9 322.7 305.5 323.2 305.4L337.8 303.8 340.9 308 335.3 320.9 329.7 321.3 321.4 309.9C321 309.3 320.4 309.2 319.8 309.6 319.3 310 319 310.8 319.4 311.4L326.9 321.7 320.4 322.4 316.8 317.5C316.4 316.9 315.8 316.8 315.2 317.2 314.7 317.6 314.6 318.3 315 318.8L317.8 322.7 310.2 323.4C309.7 323.5 309.1 324.2 309.1 324.7 309.4 325.4 309.8 326 310.4 325.8L318.4 325 316.1 330.1C316 330.7 316.2 331.4 316.7 331.6 317.2 331.9 317.7 331.8 318 331.5 318 331.5 318.2 331.4 318.3 331.1L321.2 324.7 327.7 323.9 322.3 336.6C321.9 337.2 322.1 337.8 322.8 338.1 323.2 338.2 323.5 338.2 323.9 338 324 337.8 324.2 337.7 324.4 337.6L330.3 323.7 335.6 323.2 343.8 334.4 341.3 339.9 327.2 341.4C326.4 341.4 326 342 326.2 342.7 326.1 343.4 326.7 343.8 327.5 343.7L340.3 342.3 337.7 348.4 331.4 349.1C330.9 349.2 330.5 349.7 330.4 350.4 330.6 351.1 331 351.6 331.7 351.4L336.5 351 333.7 357.6C333.2 358.1 333.6 358.7 334.2 359.1 334.5 359.2 335 359.1 335.4 358.8 335.4 358.8 335.6 358.7 335.8 358.5L338.8 351.5 342.2 356.1C342.5 356.5 343.2 356.8 343.8 356.4 344.3 356 344.3 355.2 344 354.8L339.9 349.1 342.4 343 350.6 354.2C351 354.7 351.9 354.7 352.4 354.3S353.1 353.3 352.7 352.7L343.7 340.4 345.9 335.4 359.8 334 363.3 338.7 357.3 352.1C357.2 352.8 357.4 353.5 358 353.9 358.3 353.9 358.8 353.8 359.2 353.6 359.4 353.4 359.6 353.3 359.6 353L364.9 341 368.8 346.3 366.2 352.4C366 352.8 366.2 353.5 366.8 353.9 367.4 354 368.1 353.8 368.3 353.4L370.4 348.5 374.7 354.4C375 354.7 375.9 354.9 376.3 354.6 376.8 354.2 377 353.3 376.7 352.9L372.4 347 377.5 346.7C377.7 346.5 377.9 346.4 378.1 346.3 378.5 346 378.7 345.5 378.7 345.2 378.5 344.5 377.9 344.1 377.3 344L370.8 344.8 366.9 339.5 380 338.1C380.8 338.1 381.3 337.5 381.2 337 381.1 336.2 380.5 335.7 379.9 335.6L365.3 337.3 361.8 332.5 367.4 319.7 372.9 319.1 381.9 331.4C382.3 331.9 382.9 332 383.5 331.6 384 331.2 384.1 330.6 383.7 330L375.5 318.8 382.1 318.2 386.3 323.9C386.6 324.3 387.5 324.5 388.1 324 388.6 323.6 388.6 322.8 388.3 322.5L385 317.9 392.6 317.1C392.8 317 392.8 317 392.9 316.8 393.3 316.6 393.5 316.1 393.6 315.8 393.4 315.1 392.8 314.7 392.3 314.8ZM360.2 330.3L359.5 331.6 358.2 331.8 346.9 332.9 345.6 333.1 344.8 331.9 338.3 322.9 337.4 321.8 338 320.6 342.5 310.3 343 309 344.5 308.8 355.6 307.7 357.1 307.5 357.9 308.6 364.5 317.6 365.3 318.7 364.6 320.1 360.2 330.3Z" fill="rgba(246, 250, 255, 1)"></path>
        <path d="M120.3 181.9L106.8 195 101.6 195 95.9 184.9 98.5 180.3 116.9 175.7C117.1 175.6 117.1 175.6 117.3 175.5 117.7 175.3 118 174.9 117.8 174.2 117.5 173.6 117.1 173.3 116.4 173.4L100.3 177.4 104.5 170.4 111.5 168.6C111.5 168.6 111.7 168.4 111.7 168.4 112.1 168.2 112.4 167.8 112.3 167.1 112.3 166.6 111.5 166.2 110.8 166.3L106.2 167.4 109.3 162.2C109.6 161.8 109.5 161.1 108.9 160.6S107.6 160.6 107.1 161.1L104.2 166.1 103 161.6C102.8 160.9 102.1 160.5 101.4 160.7 101 160.9 100.5 161.4 100.7 162.1L102.5 169.2 98.2 176.3 94.2 160.3C94 159.6 93.3 159.2 92.8 159.2 92.2 159.6 91.7 160.1 91.8 160.8L96.6 179 93.7 183.7 82.4 183.6 79.7 178.8 84.7 160.6C84.9 160 84.5 159.4 83.9 159.2S82.7 159.4 82.5 160L78.2 176 74.1 168.7 76 161.9C76.2 161.2 75.8 160.6 75.1 160.3S73.9 160.4 73.7 161L72.5 165.9 69.5 160.5C69.2 159.9 68.4 159.9 67.8 160.2 67.2 160.5 67 161.2 67.3 161.8L70.3 167.1 65.7 165.8C64.9 165.4 64.4 165.8 64.3 166.6 64.1 167.2 64.4 167.8 65.1 168L71.9 169.9 76 177.2 60.1 172.6C59.5 172.4 58.7 172.9 58.5 173.5S58.7 174.7 59.3 174.9L77.5 180 80.2 184.8 74.3 194.6 68.9 194.5 55.9 180.9C55.4 180.4 54.7 180.6 54.1 180.9 53.6 181.4 53.7 182.1 54 182.7L65.6 194.5 57.4 194.4 52.4 189.1C51.9 188.7 51.2 188.8 50.6 189.1 50.3 189.5 50.2 190.4 50.7 190.8L54 194.3 48 194.2C47.4 194.3 47 194.8 46.8 195.4 46.9 196.1 47.5 196.6 48 196.6L54 196.6 50.5 200.1C50.2 200.5 50.1 201.4 50.5 201.7 50.9 202.2 51.4 202.2 52 201.9 52 201.9 52.2 201.8 52.2 201.8L57.4 196.7 65.6 196.9 53.8 208.4C53.3 209 53.1 209.6 53.7 210.1 54.2 210.5 54.7 210.5 55.1 210.3 55.3 210.2 55.3 210.2 55.3 210.2L69 196.8 74.3 197 79.9 207.1 77.2 211.5 58.8 216.3C58.3 216.4 57.9 217.1 57.9 217.6 58 218.3 58.8 218.7 59.5 218.6L75.5 214.5 71.3 221.6 64.3 223.4C63.6 223.6 63.1 224.1 63.4 224.7 63.6 225.4 64.3 225.8 64.8 225.7L69.5 224.4 66.4 229.5C66.2 230.2 66.4 230.9 66.9 231.4 67.2 231.4 67.7 231.4 68.1 231.2 68.3 231.1 68.3 231.1 68.4 230.8L71.5 225.6 72.9 230.4C73 231.1 73.6 231.2 74.1 231.2 74.3 231.1 74.3 231.1 74.5 231 74.9 230.8 75.2 230.4 75.2 229.8L73.3 222.8 77.5 215.8 81.5 231.8C81.8 232.4 82.4 232.9 82.9 232.5 83.3 232.6 83.3 232.6 83.5 232.5 83.9 232.3 84 231.7 84 231.2L79.2 212.7 81.9 208.3 93.4 208.4 96 213 90.8 231.3C90.7 231.9 91.1 232.7 91.7 232.8S93.1 232.6 93.3 232L97.7 216 101.7 223.1 99.8 230.1C99.7 230.7 100 231.3 100.6 231.5 101.2 231.7 101.8 231.4 102 230.7L103.3 226.1 106.3 231.5C106.5 231.8 107.3 232.2 107.9 231.9 108.5 231.6 108.7 230.6 108.5 230.2L105.5 224.9 110.2 226.2C110.5 226.3 110.8 226.4 111 226.2 111.4 226 111.5 225.7 111.5 225.4 111.7 224.8 111.4 224.2 110.8 224L103.8 221.9 99.8 214.7 115.8 219.4C116.1 219.5 116.3 219.4 116.7 219.2 116.9 219 117.1 218.9 117.1 218.6 117.3 218 116.9 217.2 116.3 217L98.2 211.8 95.6 207.2 101.4 197.5 106.8 197.3 119.9 211.1C120.4 211.3 121 211.5 121.4 211.3 121.6 211.2 121.6 211.2 121.5 211 122.1 210.6 122.1 209.8 121.6 209.3L110 197.6 118.4 197.6 123.4 202.8C123.9 203.1 124.4 203.1 124.8 202.9 124.8 202.9 125 202.8 125 202.8 125.6 202.4 125.6 201.6 125.1 201.1L121.6 197.6 127.6 197.7C127.9 197.7 128.1 197.6 128.3 197.5 128.7 197.3 129 196.9 128.9 196.7 128.9 195.9 128.4 195.4 127.8 195.2L121.8 195.2 125.2 192C125.7 191.4 125.7 190.6 125.2 190.1 124.8 189.8 123.9 189.8 123.7 190.2L118.4 195.2 110.2 195.1 122 183.6C122.5 183 122.4 182.3 122 181.7 121.6 181.4 120.8 181.4 120.3 181.9ZM94.4 187.3L98.7 195 99.4 196.2 98.7 197.4 94.3 204.8 93.4 206.1 92.1 206 83.4 205.9 82.1 205.9 81.4 204.7 77.1 197 76.4 195.8 77.1 194.6 81.5 187.2 82.2 186 83.7 185.9 92.4 186.1 93.7 186.1 94.4 187.3Z" fill="rgba(246, 250, 255, 1)"></path>
        <path d="M634.6 270.1L659.2 243.4 672.5 243.2 664.1 252.2C663 252.9 663.3 254.3 664 255.4 664.9 256 666.5 256 667.1 255.1L678.8 243 691.8 242.3 685.5 253.8 669.2 258.6C669.2 258.6 668.9 258.9 668.9 258.9 668.1 259.3 667.8 260.6 667.9 261.6 668.6 262.8 669.5 263.3 670.9 263L682.6 259.4 676.3 270.8 641.8 281.7C641.8 281.7 641.2 281.6 641.2 281.6 640.4 282 640.1 283.3 640.2 284.3 640.6 285.7 642.1 286.4 643.2 285.7L673.4 276.4 666.2 290.6 652.7 294.8C652.7 294.8 652.7 294.8 652.3 295 651.5 295.5 651 296.4 651.1 297.4 651.8 298.5 652.9 299.4 654.3 299.1L663.3 296.2 657.9 306.5C657 307.6 657.7 308.8 658.6 309.3 659.7 310.2 661.1 309.9 661.8 308.4L667.4 298.5 669.6 307.2C670.4 308.4 671.5 309.3 672.6 308.6 674 308.2 674.6 307.4 674.2 306L670.1 292.5 677.5 278.7 687 309.2C687.1 310.3 688.6 310.9 690 310.6 690.8 310.1 691.7 309 691.3 307.6L680.5 273.1 686.7 261.6 690.3 273.3C690.6 274.7 691.9 275 693.3 274.7 694.3 274.6 695 273.1 694.9 272.1L689.6 256 695.7 244.2 702.7 255.4 698.9 271.7C698.6 273 699.4 274.1 700.6 274.4 701.5 274.9 703 274 703.3 272.7L706.1 260.8 713.1 272 704.6 307.3C704.3 308.6 705 309.8 706.3 310 707.6 310.3 708.7 309.6 709 308.4L716.4 277.4 724.7 290.5 721.5 304.3C721.2 305.5 721.9 306.7 723.2 307 724.4 307.3 725.6 306.5 725.9 305.3L728.3 296.3 734.3 305.9C735.1 307.1 736.3 307.4 737.5 306.6 738.6 305.9 738.9 304.7 738.2 303.5L732.1 293.9 740.9 295.9C742.2 296.2 743.3 295.4 743.6 294.2S743.2 291.8 741.9 291.5L728.8 288.5 720.3 275 751 282C752.3 282.3 753.5 281.6 753.7 280.3 754 279.1 753.3 277.9 752 277.6L716.9 269.6 709.9 258.4 721.8 261.1C723.1 261.4 724.2 260.7 724.5 259.4 724.8 258.2 724.1 257 722.8 256.7L706.5 253 699.8 242.2 712.4 241.8 725 253.2C725.8 253.8 727.5 253.8 728 252.9 728.9 251.8 728.8 250.8 728.1 249.7L719.1 241.3 731.7 240.9 758.4 265.6C759.6 266.5 760.6 266.4 761.7 265.6 762.6 264.5 762.3 263.1 761.8 262.4L738.4 240.5 754.4 240.2 764.5 249.4C765.2 250.6 766.6 250.3 767.7 249.5 768.3 248.7 768.3 247 767.2 246.1L760.7 240 772.1 239.3C773.3 239.6 774.2 238.5 774.3 236.8 774.2 235.8 773.1 234.9 772.1 235L760.4 235.3 766.9 228.5C767.9 227.4 767.5 226 766.7 225.5 765.9 224.3 764.9 224.4 764.1 224.9 763.8 225.2 763.8 225.2 763.4 225.4L754.1 235.5 738.2 235.8 759.7 212.7C760.8 212 760.5 210.6 759.8 209.4 758.9 208.9 757.9 209 757.1 209.4 756.7 209.7 756.7 209.7 756.7 209.7L731.5 236.3 718.9 236.7 727.2 227.7C728.1 226.6 728 225.5 727.3 224.4 726.4 223.9 725.2 223.6 724.4 224.1 724 224.3 724 224.3 723.6 224.5L712.2 237.1 699.5 237.5 705.4 226.3 721.4 221.1C722.8 220.7 723.5 219.2 723.4 218.2 722.7 217.1 721.6 216.1 720.4 216.9L708.7 220.5 714.3 208.9 749.5 198.1C750.5 198 751.2 196.5 751.1 195.5 750.4 194.4 749.3 193.4 747.9 193.8L717.7 203 725.1 189.2 738.2 185.3C739.6 185 740.3 183.5 739.6 182.3 739.5 181.3 738.4 180.4 737 180.7L728.1 183.6 733.4 173.3C733.9 172.4 733.6 171 732.5 170.1 731.9 170 730.8 170.1 730.1 170.5 730.1 170.5 729.7 170.8 729.3 171L724 181.4 721.1 172.4C721 171.4 719.5 170.8 718.4 170.9 718.1 171.1 718.1 171.1 718.1 171.1 716.9 171.8 716.6 173.1 717.1 173.8L721 187 713.8 201.2 704.3 170.6C703.6 169.4 702.7 168.9 701.3 169.2 701.3 169.2 700.9 169.5 700.9 169.5 700.2 170 699.6 170.8 700 172.2L710.5 207 704.6 218.2 701 206.5C700.3 205.3 699.2 204.4 698 205.1 697.8 204.7 697.4 205 697.4 205 696.6 205.5 696.3 206.7 696.4 207.7L701.7 223.8 695.4 235.2 688.6 224.4 692.4 208.1C692.7 206.9 691.7 205.3 690.5 205 689.4 205.1 688.3 205.9 687.8 206.7L685.3 219 678.3 207.8 686.3 172.7C686.6 171.5 685.9 170.3 684.6 170 683.4 169.7 682.2 170.5 681.9 171.7L674.9 202.5 666.4 189 669.4 175.8C669.7 174.5 669 173.4 667.7 173.1S665.3 173.5 665 174.8L663 183.6 657 173.9C656.3 172.8 655 172.5 653.9 173.2 652.7 173.9 652.4 175.2 653.1 176.3L659.2 186 650 184.2C649.4 184.1 648.8 183.9 648.4 184.1 648 184.4 647.5 185.3 647.3 185.9 647 187.1 647.7 188.3 649 188.6L662.6 191.4 671 204.9 639.9 198.1C639.3 197.9 638.6 197.8 638.3 198 637.9 198.2 637.3 199.1 637.2 199.7 636.9 201 637.6 202.2 638.9 202.4L674.4 210.3 681.4 221.5 669.2 218.3C668.6 218.2 667.8 218.7 667.5 218.9 667.1 219.2 666.7 219.4 666.5 220 666.3 221.3 667.2 222.8 668.2 222.7L684.8 226.8 691.6 237.6 678.5 238.3 666.4 226.6C665.5 226.1 664.2 225.8 663.5 226.2 663.1 226.5 663.1 226.5 663.3 226.9 662.2 227.6 662.1 229.2 663.2 230.2L672.2 238.5 659.2 239.1 632.6 213.9C631.8 213.4 630.7 213.5 630 213.9 629.6 214.2 629.6 214.2 629.6 214.2 628.7 215.3 628.4 216.5 629.5 217.5L652.9 239.3 636.9 239.6 626.9 230.4C625.7 229.5 624.7 229.6 624 230.1 624 230.1 623.6 230.3 623.6 230.3 622.7 231.4 623 232.8 623.5 233.6L630.6 239.8 619 240.1C618.6 240.4 618.2 240.6 617.8 240.9 617.5 241.1 616.9 242 616.8 242.6 617.1 244 617.9 245.2 619.2 244.8L630.9 244.5 624.4 251.3C623.5 252.4 623.8 253.8 624.3 254.6 625.4 255.5 626.8 255.1 627.9 254.4L637.2 244.3 652.9 243.6 631.4 266.8C630.5 267.9 630.4 269.5 631.3 270 632.4 271 633.7 271.2 634.6 270.1Z" fill="rgba(246, 250, 255, 1)"></path>
        <path d="M712.2 36L731 35.6 734.9 39.1 732.2 50.4 727.1 52 710.6 42.9C710.3 42.8 710.3 42.8 710.1 42.8 709.7 42.7 709.2 42.8 708.8 43.4 708.6 44.1 708.7 44.6 709.4 44.9L723.9 52.8 716 55.2 709.6 51.8C709.6 51.8 709.4 51.7 709.4 51.7 708.9 51.6 708.4 51.7 708.1 52.4 707.7 52.7 708 53.5 708.6 53.9L712.7 56.3 707 57.9C706.5 58.1 706.1 58.7 706.2 59.4S707.1 60.3 707.8 60.3L713.4 58.5 711.2 62.7C710.8 63.3 711.1 64.1 711.7 64.5 712.2 64.6 712.9 64.5 713.3 63.9L716.7 57.5 724.7 55.2 716.8 69.6C716.4 70.3 716.7 71 717.1 71.4 717.8 71.5 718.5 71.5 718.9 70.8L727.7 54.2 733 52.7 741.2 60.5 739.9 65.8 724 75.8C723.4 76.1 723.3 76.8 723.6 77.4S724.6 78.1 725.2 77.7L739.2 68.9 737.3 77.1 731.2 80.8C730.7 81.1 730.5 81.8 730.8 82.6S731.8 83.3 732.3 82.9L736.5 80.2 735.1 86.2C734.9 86.8 735.5 87.4 736.2 87.6 736.8 87.8 737.4 87.4 737.5 86.8L738.9 80.8 741.5 84.9C741.8 85.7 742.4 85.8 743 85.3 743.6 84.9 743.7 84.3 743.4 83.7L739.7 77.7 741.6 69.5 750.2 83.7C750.5 84.2 751.4 84.4 752 84.1S752.7 83.1 752.3 82.6L742.4 66.4 743.6 61.1 754.7 57.9 758.5 61.6 758.9 80.4C759 81.1 759.6 81.5 760.3 81.6 761 81.6 761.4 81 761.5 80.3L761 63.8 766.9 69.4 767.1 76.7C767.1 77.4 767.7 77.8 768.4 78 768.9 77.9 769.5 77.3 769.4 76.6L769.4 71.9 773.8 76C774.2 76.3 774.9 76.2 775.4 75.9 775.8 75.3 775.8 74.6 775.4 74.3L771 70.2 775.9 69.9C776.4 69.8 777 69.3 776.9 68.8 777.1 68.1 776.7 67.8 776 67.6 776 67.6 775.8 67.6 775.8 67.6L768.5 67.7 762.6 62.1 779.1 61.6C779.8 61.5 780.4 61.2 780.3 60.5 780.2 59.7 779.8 59.4 779.4 59.3 779.2 59.3 779.2 59.3 779.2 59.3L760.1 59.8 756.3 56.1 759 44.8 764 43.5 780.8 52.4C781.2 52.7 782 52.4 782.3 52 782.7 51.4 782.4 50.7 781.8 50.3L767.3 42.4 775.1 40 781.5 43.4C782.1 43.8 782.9 43.8 783 43.1 783.4 42.5 783.1 41.7 782.7 41.4L778.3 39.2 784.1 37.5C784.7 37.2 785 36.6 785 35.8 784.8 35.6 784.4 35.2 784 35.1 783.8 35.1 783.8 35.1 783.5 35.3L777.7 36.9 779.9 32.5C780.3 31.9 780 31.4 779.6 31 779.4 31 779.4 31 779.1 30.9 778.7 30.8 778.2 30.9 777.9 31.3L774.5 37.8 766.7 40.1 774.6 25.6C774.7 25 774.6 24.3 774 24.1 773.8 23.8 773.8 23.8 773.6 23.8 773.2 23.7 772.6 24 772.3 24.4L763.4 41.2 758.3 42.6 749.9 34.7 751.1 29.6 767.3 19.7C767.9 19.4 768.1 18.5 767.7 17.9S766.5 17.2 766 17.5L751.9 26.3 753.8 18.4 759.9 14.4C760.5 14.1 760.6 13.4 760.3 12.9 759.9 12.3 759.3 12.2 758.7 12.5L754.6 15 756 9.1C756.2 8.6 755.9 7.8 755.2 7.7 754.5 7.5 753.7 8 753.6 8.5L752.2 14.5 749.7 10.3C749.5 10.1 749.3 9.8 749.1 9.7 748.7 9.6 748.4 9.8 748.1 10 747.6 10.3 747.4 11 747.7 11.5L751.4 17.8 749.5 25.7 741 11.5C740.8 11.3 740.6 11.2 740.1 11.1 739.9 11.1 739.7 11 739.4 11.2 738.9 11.5 738.6 12.4 739 12.9L748.7 29.1 747.5 34.2 736.7 37.4 732.6 33.9 732.2 14.8C732.1 14.3 731.8 13.8 731.3 13.7 731.1 13.6 731.1 13.6 731 13.9 730.4 13.7 729.8 14.3 729.8 15L730.4 31.5 724.2 25.8 724.1 18.5C724 18 723.6 17.7 723.1 17.6 723.1 17.6 722.9 17.5 722.9 17.5 722.2 17.4 721.6 17.9 721.7 18.7L721.9 23.6 717.5 19.5C717.4 19.2 717.1 19.2 716.9 19.1 716.5 19 716 19.2 715.9 19.4 715.3 19.9 715.4 20.7 715.7 21.2L720.1 25.3 715.4 25.3C714.7 25.4 714.1 26 714.2 26.7 714.3 27.2 714.9 27.8 715.4 27.7L722.6 27.5 728.5 33.1 712.1 33.7C711.3 33.7 711 34.3 710.8 35 710.9 35.5 711.5 36.1 712.2 36ZM734.9 49.6L737 41 737.3 39.7 738.6 39.3 746.9 36.8 748.3 36.5 749.3 37.4 755.6 43.3 756.5 44.3 756.2 45.6 754.2 54.2 753.9 55.6 752.6 56 744.3 58.4 743 58.8 741.8 57.8 735.5 51.9 734.6 51 734.9 49.6Z" fill="rgba(246, 250, 255, 1)"></path>
    </g>
    <defs>
        <mask id="SvgjsMask1022">
            <rect width="1024" height="560" fill="#ffffff"></rect>
        </mask>
        <filter id="SvgjsFilter1023">
            <feGaussianBlur stdDeviation="1"></feGaussianBlur>
        </filter>
    </defs>
</svg>