<svg xmlns="http://www.w3.org/2000/svg" fill="none" viewBox="0 0 450 450">
  
  
  
<g transform="matrix(32.142857142857146,0,0,32.142857142857146,0,0)"><path fill="#333533" stroke="#edf2fb" stroke-linejoin="round" stroke-width="1.5" d="M4.013 12.98c1.015.12 2.163.228 2.987.228.824 0 1.972-.109 2.987-.228a2.846 2.846 0 002.497-2.603c.11-1.296.22-2.872.22-3.966 0-1.148-.08-2.275-.176-3.375H1.445a44.388 44.388 0 00-.148 3.375c0 1.094.11 2.67.219 3.966a2.846 2.846 0 002.497 2.603z"></path><path fill="#333533" stroke="#edf2fb" stroke-linecap="round" stroke-linejoin="round" stroke-width="1.5" d="M7 5.74c3.576 0 5.588-.89 5.588-2.474C12.588 1.683 10.576.792 7 .792c-3.577 0-5.589.89-5.589 2.474C1.411 4.85 3.423 5.74 7 5.74z"></path><path stroke="#edf2fb" stroke-linecap="round" stroke-linejoin="round" stroke-width="1.5" d="M1.344 8.116c.578.45 1.361.756 2.18.845 1.139.123 2.305.223 3.492.223 1.188 0 2.354-.1 3.492-.223.873-.094 1.556-.346 2.148-.845"></path></g></svg>