<svg xmlns="http://www.w3.org/2000/svg" fill="none" viewBox="0 0 450 450">
  
  
  
  
  
<g transform="matrix(32.142857142857146,0,0,32.142857142857146,0,0)"><path fill="#333533" stroke="#edf2fb" stroke-linecap="round" stroke-linejoin="round" stroke-width="1.5" d="M.96 10.268a3.132 3.132 0 002.753 2.76c1.07.12 2.167.222 3.287.222s2.218-.102 3.287-.222a3.132 3.132 0 002.753-2.76c.114-1.063.21-2.155.21-3.268s-.096-2.205-.21-3.269a3.132 3.132 0 00-2.753-2.76C9.217.853 8.12.75 7 .75S4.782.852 3.713.972A3.132 3.132 0 00.96 3.732C.846 4.794.75 5.886.75 7s.096 2.205.21 3.268z"></path><path fill="#242423" stroke="#edf2fb" stroke-linecap="round" stroke-linejoin="round" stroke-width="1.5" d="M13.068 4H.932l.028-.269A3.132 3.132 0 013.713.971C4.783.853 5.88.75 7 .75s2.218.102 3.287.222a3.132 3.132 0 012.753 2.76c.01.089.02.178.028.268z"></path><path stroke="#edf2fb" stroke-linecap="round" stroke-linejoin="round" stroke-width="1.5" d="M4.25 6.95l-1.5 1.5 1.5 1.5"></path><path stroke="#edf2fb" stroke-linecap="round" stroke-linejoin="round" stroke-width="1.5" d="M9.75 6.95l1.5 1.5-1.5 1.5"></path><path stroke="#edf2fb" stroke-linecap="round" stroke-linejoin="round" stroke-width="1.5" d="M6.25 10.45l1.5-4.5"></path></g></svg>